<?xml version="1.0" encoding="UTF-8"?>
<svg width="30px" height="30px" viewBox="0 0 30 30" version="1.1" xmlns="http://www.w3.org/2000/svg" xmlns:xlink="http://www.w3.org/1999/xlink">
    <!-- Generator: Sketch 51.3 (57544) - http://www.bohemiancoding.com/sketch -->
    <title>ico_setting</title>
    <desc>Created with Sketch.</desc>
    <defs></defs>
    <g id="181217_前台" stroke="none" stroke-width="1" fill="none" fill-rule="evenodd">
        <g id="民生话术模板-编辑-话术编辑器-平级跳转标识" transform="translate(-1880.000000, -71.000000)" fill="#647184" fill-rule="nonzero">
            <g id="Group-30" transform="translate(1859.000000, 61.000000)">
                <g id="icon_setting-" transform="translate(21.000000, 10.000000)">
                    <path d="M18.766028,28 C18.1780672,27.9997832 17.6075627,27.756649 17.2351493,27.3450567 C16.4517614,26.4859 15.3631345,25.8144033 14.6797031,25.8144033 C14.0078865,25.8144033 12.9010619,26.4897791 12.1421895,27.3144695 C11.7692791,27.7203011 11.2031466,27.9591998 10.6211375,27.9591998 C10.3417613,27.9591998 10.075518,27.9050552 9.8098665,27.7871958 L6.44932542,25.910078 C5.68825121,25.3770677 5.40423938,24.385475 5.77203269,23.5569588 C5.91263042,23.2573974 6.04320159,22.7333219 6.04320159,22.3679863 C6.04320159,20.6354328 4.63666277,19.2278367 2.91243176,19.2278367 L2.79870429,19.2278098 C2.03811652,19.2284202 1.4593317,18.614586 1.28605227,17.6996439 C1.23921582,17.4495545 1.19017459,17.1453846 1.14344216,16.8039054 C1.0881552,16.3999172 1.04784985,16.019082 1.02415623,15.6687788 C1.00813832,15.4319587 1,15.2124271 1,15.010889 C1,14.2242589 1.11432038,13.2268444 1.28615818,12.3212418 C1.46048646,11.3990423 2.05007012,10.7759464 2.79597452,10.7936118 L2.91249223,10.7936118 C4.6367042,10.7936118 6.04320159,9.38615453 6.04320159,7.65361209 C6.04320159,7.28739987 5.91333307,6.7665831 5.76847683,6.45648693 C5.40593143,5.6401396 5.68473696,4.64639416 6.44388322,4.12048446 L9.98756029,2.16947837 C10.2587381,2.05395936 10.5203385,2 10.8005407,2 C11.3792405,2 11.944568,2.23287171 12.3197634,2.62833377 C13.091158,3.43602273 14.1557393,4.06688072 14.8199975,4.06688072 C15.4781134,4.06688072 16.5352016,3.44825806 17.3018864,2.65688806 C17.6760777,2.26832986 18.2376553,2.039572 18.8101676,2.039572 C19.0899782,2.039572 19.3567136,2.093234 19.6234843,2.2102655 L23.0479635,4.11083295 C23.8105313,4.64314611 24.0963723,5.6344986 23.7324764,6.45426825 C23.6916702,6.54839182 23.6409257,6.68936722 23.5942963,6.84544243 C23.5213077,7.08974552 23.4760858,7.31806058 23.4616844,7.52090894 C23.458426,7.56680462 23.4567984,7.61101522 23.4567984,7.65346231 C23.4567984,9.38608682 24.8631983,10.793462 26.587566,10.793462 L26.6959937,10.7935513 C27.4495374,10.7768026 28.0393519,11.3991807 28.2138269,12.3210131 C28.3865362,13.2334584 28.5,14.2236277 28.5,15.0105595 C28.5,15.7955848 28.3807925,16.8333004 28.2136902,17.7000371 C28.0396341,18.6206425 27.4504874,19.2429736 26.7038758,19.2275372 L26.5875078,19.2275372 C24.8632923,19.2275372 23.4567984,20.6351184 23.4567984,22.3678365 C23.4567984,22.4102044 23.4584189,22.4543255 23.4616631,22.5001223 C23.4760548,22.7032803 23.52136,22.9319477 23.5945214,23.1766502 C23.6410822,23.3323822 23.6917287,23.4731031 23.7314075,23.5647387 C24.0934368,24.380465 23.8154575,25.3742139 23.058527,25.8999365 L19.5777389,27.8282711 C19.307019,27.9453031 19.0457454,28 18.766028,28 Z M21.1725668,22.368136 C21.1725668,19.5942832 23.2828393,17.2747826 26.0198075,16.9892659 C26.1422563,16.2540564 26.2155887,15.550472 26.2155887,15.010889 C26.2155887,14.470754 26.1427643,13.7718869 26.0197218,13.0324851 C23.2828001,12.7467593 21.1725668,10.4272985 21.1725668,7.65361209 C21.1725668,7.06219523 21.298649,6.44039629 21.514884,5.85532645 L18.8493151,4.36292849 C18.7146532,4.47759685 18.5364064,4.62892353 18.465264,4.68782088 C18.2392602,4.87492491 18.0287374,5.03917037 17.8102372,5.1959088 C17.7745634,5.22141914 17.7745634,5.22141914 17.7384028,5.24694783 C16.7159108,5.96627915 15.7350185,6.33542225 14.8196681,6.33542225 C13.8953989,6.33542225 12.90635,5.95882206 11.8777943,5.22540998 C11.4621874,4.92908765 11.0751695,4.60178489 10.8162771,4.33942201 C10.6490477,4.42866483 10.4498839,4.53544099 10.184537,4.67800974 C9.68571266,4.94602396 8.95315584,5.34044367 7.98689785,5.86125207 C8.20120276,6.44283514 8.32695408,7.06504796 8.32695408,7.65361209 C8.32695408,10.427324 6.21671045,12.7468048 3.47973531,13.0324928 C3.35711237,13.7688552 3.28393217,14.4710341 3.28393217,15.010889 C3.28393217,15.5498219 3.35814439,16.2606872 3.47983253,16.9891121 C6.21663177,17.2746916 8.32695408,19.5943831 8.32695408,22.368136 C8.32695408,22.9602863 8.20053351,23.5832232 7.98415799,24.1679731 L10.5882367,25.6307876 C10.9432851,25.2920585 11.2924346,24.9928316 11.6878791,24.7027801 C12.729871,23.9387297 13.7357854,23.5463111 14.6796731,23.5463111 C15.6327763,23.5463111 16.6463219,23.9462258 17.6944921,24.7248944 C18.1007637,25.0264999 18.4783326,25.3575102 18.7769248,25.6627792 C18.9294049,25.5798028 19.123055,25.473995 19.3809916,25.3327877 C19.8653286,25.0676377 20.5761908,24.6777508 21.5135503,24.1631423 C21.2987432,23.5811268 21.1725668,22.957762 21.1725668,22.368136 Z M14.6910524,19.9790757 C11.9363748,19.9790757 9.69867154,17.7411631 9.69867154,14.9932449 C9.69867154,12.2452441 11.9363077,10.0074141 14.6910524,10.0074141 C17.445832,10.0074141 19.683583,12.2452793 19.683583,14.9932449 C19.683583,17.7410473 17.4456658,19.9790757 14.6910524,19.9790757 Z M17.6054283,14.9930951 C17.6054283,13.3819138 16.2965835,12.0731737 14.6910524,12.0731737 C13.0855532,12.0731737 11.7767963,13.381882 11.7767963,14.9930951 C11.7767963,16.6044832 13.0855786,17.9133161 14.6910524,17.9133161 C16.2965581,17.9133161 17.6054283,16.6044514 17.6054283,14.9930951 Z" id="ico_setting"></path>
                </g>
            </g>
        </g>
    </g>
</svg>