<?xml version="1.0" encoding="UTF-8"?>
<svg width="22px" height="22px" viewBox="0 0 22 22" version="1.1" xmlns="http://www.w3.org/2000/svg" xmlns:xlink="http://www.w3.org/1999/xlink">
    <!-- Generator: Sketch 51.3 (57544) - http://www.bohemiancoding.com/sketch -->
    <title>ico_question</title>
    <desc>Created with Sketch.</desc>
    <defs></defs>
    <g id="3-话术" stroke="none" stroke-width="1" fill="none" fill-rule="evenodd">
        <g id="知识库-发布确认" transform="translate(-472.000000, -381.000000)" fill="#4E8FF9" fill-rule="nonzero">
            <g id="删除分类">
                <g id="新建话术" transform="translate(440.000000, 362.000000)">
                    <g id="Group-2" transform="translate(0.000000, 19.000000)">
                        <g id="ico_question" transform="translate(32.000000, 0.000000)">
                            <path d="M11,0 C4.928,0 0,4.928 0,11 C0,17.072 4.928,22 11,22 C17.072,22 22,17.072 22,11 C22,4.928 17.072,0 11,0 Z M12.1,18.7 L9.9,18.7 L9.9,16.5 L12.1,16.5 L12.1,18.7 Z M14.377,10.175 L13.387,11.187 C12.595,11.99 12.1,12.65 12.1,14.3 L9.9,14.3 L9.9,13.75 C9.9,12.54 10.395,11.44 11.187,10.637 L12.551,9.251 C12.958,8.855 13.2,8.305 13.2,7.7 C13.2,6.49 12.21,5.5 11,5.5 C9.79,5.5 8.8,6.49 8.8,7.7 L6.6,7.7 C6.6,5.269 8.569,3.3 11,3.3 C13.431,3.3 15.4,5.269 15.4,7.7 C15.4,8.668 15.004,9.548 14.377,10.175 Z" id="Shape"></path>
                        </g>
                    </g>
                </g>
            </g>
        </g>
    </g>
</svg>