<?xml version="1.0" encoding="UTF-8"?>
<svg width="30px" height="30px" viewBox="0 0 30 30" version="1.1" xmlns="http://www.w3.org/2000/svg" xmlns:xlink="http://www.w3.org/1999/xlink">
    <!-- Generator: Sketch 51.3 (57544) - http://www.bohemiancoding.com/sketch -->
    <title>icon_call</title>
    <desc>Created with Sketch.</desc>
    <defs></defs>
    <g id="181217_前台" stroke="none" stroke-width="1" fill="none" fill-rule="evenodd">
        <g id="民生话术模板-编辑-话术编辑器-平级跳转标识" transform="translate(-2210.000000, -71.000000)" fill="#647184" fill-rule="nonzero">
            <g id="Group-22" transform="translate(2039.000000, 61.000000)">
                <g id="icon_call" transform="translate(171.000000, 10.000000)">
                    <path d="M18.2096722,9.48010675 C17.6312348,9.14753032 17.010616,8.90596913 16.3700194,8.75550917 C16.0420076,8.67846748 15.7348507,8.6314195 15.5576056,8.62384363 C14.9557138,8.59974979 14.4868974,8.09146275 14.5108912,7.4890431 C14.5347606,6.8886175 15.0536089,6.40985797 15.6447549,6.44148399 C16.6648033,6.48427592 18.0107101,6.87448054 19.2478534,7.56745293 C21.6581771,8.91756962 23.1743507,11.1839518 23.6607251,14.354859 C23.752347,14.9504424 23.3436303,15.5079972 22.7483444,15.5997246 C22.694147,15.6081684 22.6390141,15.6122413 22.5808891,15.6122413 C22.0438667,15.6122413 21.5849911,15.2188454 21.5038562,14.6859798 C21.1280795,12.2373725 20.0008384,10.5099497 18.2096722,9.48010675 Z M28.2317146,13.5249101 C28.4017567,14.9931315 28.2938048,16.3358184 27.9918834,17.3029132 C27.8489495,17.7591159 27.4263606,18.0681008 26.9503361,18.0681008 C26.8382806,18.0681008 26.7281232,18.0514909 26.6236158,18.0184788 C26.0494035,17.8380829 25.7295558,17.2256279 25.9085713,16.6518582 C26.1344592,15.9032456 26.2049246,14.83864 26.0519235,13.6633726 C25.7599893,11.4209012 24.678741,9.30859735 22.7689823,7.39791588 C20.6993988,5.32744059 18.5256702,4.18829294 16.3172548,3.93347126 C15.608636,3.85170611 14.9322897,3.86729044 14.305818,3.97175312 C13.9875804,4.02481851 13.7072475,4.09668467 13.5624977,4.15431555 C13.0034447,4.37993481 12.3686136,4.1089339 12.1429613,3.54870247 C11.9183048,2.98964967 12.1893263,2.35349923 12.7479538,2.12852831 C13.6578445,1.76150524 14.9695206,1.59766603 16.4240781,1.74130749 C19.166363,2.01211549 21.8269644,3.36815261 24.3119455,5.85386094 C26.6165169,8.15915487 27.9103242,10.7498785 28.2317146,13.5249101 Z M25.9709308,22.8016092 C26.0352002,23.9843162 25.5438273,25.1563198 24.5198099,26.3925474 C24.2359659,26.7352132 24.001774,26.9863272 23.5230316,27.4655387 C22.9643025,28.0248153 22.1385615,28.3066667 21.0790598,28.3066667 C17.7188608,28.3066667 12.7296892,25.6160417 8.56757059,21.4508156 C3.11549606,15.9928854 0.15871422,8.88605267 2.55871985,6.48201155 C3.02124234,6.01905541 3.25336304,5.80016125 3.56871289,5.53271103 C4.75206139,4.52910563 5.86829088,4.0256626 7.01923176,4.0256626 C8.29342689,4.0256626 9.4553703,4.6693508 10.4622678,5.9250578 C12.5427643,8.51942437 12.4765365,10.3634185 10.4423737,12.4576663 C10.333052,12.5702172 10.2468625,12.656495 10.0377599,12.8629755 L9.86797158,12.9906732 C9.86648723,13.1314901 9.97873425,13.4204574 10.2128427,13.8159424 C10.6980348,14.6355889 11.6080049,15.72312 12.9487648,17.0643207 C14.9540043,19.070727 16.3563393,20.0939529 16.928213,20.165709 L17.145604,19.9820281 C17.2885837,19.8369047 17.3467011,19.7782728 17.4217076,19.7035635 C18.6134713,18.5165219 19.4728928,18.058882 20.6290535,18.058882 C21.7023599,18.058882 22.8318141,18.5510217 24.0810116,19.5560708 C25.2666314,20.5091858 25.9063771,21.6037571 25.9709308,22.8016092 Z M22.1207501,26.0625531 C23.5015506,24.6826659 24.0408549,23.8178778 23.9911559,22.9093162 C23.9581824,22.2885466 23.5800888,21.6985812 22.8395128,21.1022881 C21.9683852,20.4020501 21.22244,20.0427018 20.6289479,20.0427018 C20.2029575,20.0427018 19.8022188,20.2295535 19.3221945,20.6387024 C19.1210574,20.8101417 18.9637279,20.9618303 18.5567199,21.3747892 L18.316205,21.6177953 C17.9821135,21.9510965 17.5415019,22.1277561 17.0423814,22.1277561 C15.7898515,22.1277561 14.1434843,21.0650504 11.5470695,18.467435 C8.95105452,15.8711155 7.88877718,14.2232168 7.88973583,12.9697112 C7.88973586,12.4686571 8.06713524,12.0269078 8.40230309,11.6919901 L8.64508547,11.4512613 C10.3772775,9.74074001 10.4333216,9.05875491 8.91584574,7.16617696 C8.29405097,6.38999348 7.67380389,6.00948243 7.01902052,6.00948243 C6.90987917,6.00948243 6.79777796,6.020225 6.68274778,6.04156624 C6.11196958,6.1474612 5.48746737,6.50404871 4.78778502,7.10435638 C4.52944325,7.32600632 4.33380842,7.51126935 3.96058371,7.88520378 C2.55415267,9.29217502 5.50820647,15.5822787 9.96892471,20.0483113 C13.7190518,23.8011638 18.263324,26.3228468 21.0788838,26.3228468 C21.6016051,26.3228468 21.9531348,26.2303326 22.1207501,26.0625531 Z"></path>
                </g>
            </g>
        </g>
    </g>
</svg>