<?xml version="1.0" encoding="UTF-8"?>
<svg width="30px" height="30px" viewBox="0 0 30 30" version="1.1" xmlns="http://www.w3.org/2000/svg" xmlns:xlink="http://www.w3.org/1999/xlink">
    <!-- Generator: Sketch 51.3 (57544) - http://www.bohemiancoding.com/sketch -->
    <title>icon_enlarge</title>
    <desc>Created with Sketch.</desc>
    <defs></defs>
    <g id="181217_前台" stroke="none" stroke-width="1" fill="none" fill-rule="evenodd">
        <g id="民生话术模板-编辑-话术编辑器-平级跳转标识" transform="translate(-2109.000000, -71.000000)" fill="#647184" fill-rule="nonzero">
            <g id="Group-22" transform="translate(2039.000000, 61.000000)">
                <g id="icon_enlarge" transform="translate(70.000000, 10.000000)">
                    <path d="M27.675,26.0580913 C28.1083333,26.4896266 28.1083333,27.1369295 27.675,27.6763485 C27.4583333,27.8921162 27.1333334,28 26.9166667,28 C26.7,28 26.375,27.8921162 26.1583333,27.6763485 L21.5,23.0373444 C19.4416667,24.6556016 16.8416667,25.7344398 13.9166667,25.7344398 C7.30833333,25.7344398 2,20.4481328 2,13.8672199 C2,7.28630705 7.30833333,2 13.9166667,2 C20.525,2 25.8333333,7.28630705 25.8333333,13.8672199 C25.8333333,16.6721992 24.8583333,19.3692946 23.125,21.4190871 L27.675,26.0580913 Z M18.4432432,12.8216216 C19.1178378,12.8216216 19.5675676,13.2713514 19.5675676,13.9459459 C19.5675676,14.6205405 19.1178378,15.0702703 18.4432432,15.0702703 L15.0702703,15.0702703 L15.0702703,18.4432432 C15.0702703,19.1178378 14.6205405,19.5675676 13.9459459,19.5675676 C13.2713514,19.5675676 12.8216216,19.1178378 12.8216216,18.4432432 L12.8216216,15.0702703 L9.44864866,15.0702703 C8.77405406,15.0702703 8.32432432,14.6205405 8.32432432,13.9459459 C8.32432432,13.2713514 8.77405406,12.8216216 9.44864866,12.8216216 L12.8216216,12.8216216 L12.8216216,9.44864866 C12.8216216,8.77405406 13.2713514,8.32432432 13.9459459,8.32432432 C14.6205405,8.32432432 15.0702703,8.77405406 15.0702703,9.44864866 L15.0702703,12.8216216 L18.4432432,12.8216216 Z M4.16666666,13.8672199 C4.16666666,19.2614108 8.49999999,23.5767635 13.9166667,23.5767635 C19.3333333,23.5767635 23.6666667,19.2614108 23.6666667,13.8672199 C23.6666667,8.47302904 19.3333333,4.15767635 13.9166667,4.15767635 C8.49999999,4.15767635 4.16666666,8.47302904 4.16666666,13.8672199 Z"></path>
                </g>
            </g>
        </g>
    </g>
</svg>