<?xml version="1.0" encoding="UTF-8"?>
<svg width="30px" height="30px" viewBox="0 0 30 30" version="1.1" xmlns="http://www.w3.org/2000/svg" xmlns:xlink="http://www.w3.org/1999/xlink">
    <!-- Generator: Sketch 51.3 (57544) - http://www.bohemiancoding.com/sketch -->
    <title>icon_exit</title>
    <desc>Created with Sketch.</desc>
    <defs></defs>
    <g id="编辑话术-主流程" stroke="none" stroke-width="1" fill="none" fill-rule="evenodd">
        <g id="民生银行信用卡催款" transform="translate(-2110.000000, -71.000000)" fill="#647184" fill-rule="nonzero">
            <g id="btn_退出" transform="translate(2090.000000, 61.000000)">
                <g id="icon_exit" transform="translate(20.000000, 10.000000)">
                    <path d="M27.8157162,14.5119732 L27.8156891,14.5120028 C28.0614279,14.7800744 28.0614279,15.2147596 27.8157433,15.4827721 L26.8022162,16.5882867 C26.8021891,16.5883163 26.8021348,16.5883458 26.8021077,16.588405 L22.7971362,20.9568669 C22.5513702,21.2249089 22.1528813,21.2249089 21.9070883,20.9568373 L20.8935882,19.8513523 C20.6478223,19.5832806 20.6478223,19.1485954 20.8935882,18.8805238 L23.1052109,16.4681748 L13.0293484,16.4681748 C12.6817853,16.4681748 12.4,16.1608147 12.4,15.7817068 L12.4,14.218271 C12.4,13.8391631 12.6817582,13.5318031 13.0293484,13.5318031 L23.1100081,13.5318031 L20.8984125,11.1194836 C20.6526465,10.8513824 20.6526465,10.4167268 20.8984125,10.1486551 L21.9119125,9.04317007 C22.1577056,8.77506888 22.5561945,8.77509844 22.8019604,9.04317007 L27.8157162,14.5119732 Z M18.2174109,2 C19.3123636,2 20.2,2.90636431 20.2,4.02438918 L20.2,6.8811076 C20.2,7.25378256 19.9041212,7.55590399 19.5391467,7.55590399 L18.1067296,7.55590399 C17.7417551,7.55590399 17.4458762,7.25378256 17.4458762,6.8811076 L17.4458762,5.76567157 C17.4386199,5.2130271 16.9978762,4.76726928 16.4549314,4.76726928 L5.71764597,4.76726928 C5.17015506,4.76726928 4.72635142,5.22046631 4.72635142,5.77947875 L4.72635142,24.1970133 C4.72635142,24.7560555 5.1701842,25.2092228 5.71764597,25.2092228 L16.4549023,25.2092228 C16.997847,25.2092228 17.4385907,24.7634352 17.4458471,24.2108205 L17.4458471,23.1274326 C17.4458471,22.7547279 17.7417551,22.4526065 18.1067004,22.4526065 L19.5391175,22.4526065 C19.9041212,22.4526065 20.1999709,22.7547577 20.1999709,23.1274326 L20.1999709,25.9756108 C20.1999709,27.0936357 19.3123344,28 18.2174109,28 L3.98258909,28 C2.88760728,28 2,27.0936357 2,25.9756108 L2,4.02438918 C2,2.90636431 2.88763642,2 3.98258909,2 L18.2174109,2 Z"></path>
                </g>
            </g>
        </g>
    </g>
</svg>