<?xml version="1.0" encoding="UTF-8"?>
<svg width="30px" height="30px" viewBox="0 0 30 30" version="1.1" xmlns="http://www.w3.org/2000/svg" xmlns:xlink="http://www.w3.org/1999/xlink">
    <!-- Generator: Sketch 51.3 (57544) - http://www.bohemiancoding.com/sketch -->
    <title>icon_verify</title>
    <desc>Created with Sketch.</desc>
    <defs></defs>
    <g id="181217_前台" stroke="none" stroke-width="1" fill="none" fill-rule="evenodd">
        <g id="民生话术模板-编辑-话术编辑器-平级跳转标识" transform="translate(-2298.000000, -71.000000)" fill="#FFFFFF" fill-rule="nonzero">
            <g id="btn_submit-copy" transform="translate(2280.000000, 61.000000)">
                <g id="icon_verify" transform="translate(18.000000, 10.000000)">
                    <g id="icon_save">
                        <path d="M24.8405789,2 C26.5829068,2 28,3.4173672 28,5.1599296 L28,24.8404584 C28,26.5828885 26.5829356,28 24.8406047,28 L5.15960222,28 C3.41714939,28 2,26.5828959 2,24.8404584 L2,5.1599296 C2,3.41738953 3.41717435,2 5.15949875,2 L24.8405789,2 Z M9.35737063,25.7223477 L20.6427587,25.7223477 L20.6427587,17.941289 L9.35737063,17.941289 L9.35737063,25.7223477 Z M25.769904,24.8406479 L25.7697488,5.15992959 C25.7697489,4.64728951 25.3527688,4.2300829 24.8404495,4.2300829 L23.6092506,4.2300829 L23.6092506,9.00629764 C23.6092506,9.62214963 23.110088,10.1213391 22.4941897,10.1213391 L7.50640523,10.1213391 C6.89055957,10.1213391 6.39134435,9.62212467 6.39134435,9.00629764 L6.39134435,4.2300829 L5.15947287,4.2300829 C4.64717868,4.2300829 4.23007009,4.64734205 4.23007009,5.1599296 L4.23007009,24.8404584 C4.23007009,25.3529004 4.64716249,25.769943 5.15957636,25.769943 L7.12724885,25.769943 L7.12724885,17.4707492 C7.12724885,16.5003803 7.91642185,15.7112319 8.88685023,15.7112319 L21.1132791,15.7112319 C22.0836341,15.7112319 22.8728546,16.5004104 22.8728546,17.4707492 L22.8728546,25.7699688 L24.8406047,25.7699688 C25.3528667,25.7699688 25.7698153,25.3530348 25.769904,24.8406479 Z"></path>
                    </g>
                </g>
            </g>
        </g>
    </g>
</svg>