<?xml version="1.0" encoding="UTF-8"?>
<svg width="30px" height="30px" viewBox="0 0 30 30" version="1.1" xmlns="http://www.w3.org/2000/svg" xmlns:xlink="http://www.w3.org/1999/xlink">
    <!-- Generator: Sketch 51.3 (57544) - http://www.bohemiancoding.com/sketch -->
    <title>icon_verify</title>
    <desc>Created with Sketch.</desc>
    <defs></defs>
    <g id="编辑话术-主流程" stroke="none" stroke-width="1" fill="none" fill-rule="evenodd">
        <g id="民生银行信用卡催款" transform="translate(-2610.000000, -71.000000)" fill="#FFFFFF" fill-rule="nonzero">
            <g id="btn_submit" transform="translate(2590.000000, 61.000000)">
                <g id="icon_verify" transform="translate(20.000000, 10.000000)">
                    <path d="M8.8464355,6.92798913 C8.30910208,6.92798913 7.86827757,6.48432846 7.86844512,5.94050267 L7.86844512,2.98445115 C7.86844512,2.44366067 8.30625373,2 8.8464355,2 C9.38376891,2 9.82459343,2.44079399 9.82459343,2.98445115 L9.82459343,5.9437066 C9.82459343,6.48432846 9.38678482,6.92798913 8.8464355,6.92798913 Z M24.6676671,3.97119565 C26.3012848,3.97119565 27.6253749,5.2478546 27.6255435,6.88220107 L27.6255435,24.6597951 C27.6255435,26.2941416 26.2982502,27.6255435 24.6674986,27.6255435 L4.95804492,27.6255435 C3.32729327,27.6255435 2,26.2941416 2,24.6599641 L2,6.88220107 C2,5.2478546 3.32729327,3.97119565 4.95804492,3.97119565 L6.88905179,3.97119565 L6.88905179,5.89598373 C6.88905179,6.98560436 7.82505232,7.87145969 8.9121077,7.87145969 C9.99933167,7.87145969 10.9351636,6.98560436 10.9351636,5.89598373 L10.9351636,3.97119565 L18.6902113,3.97119565 L18.6902113,5.89598373 C18.6902113,6.98560436 19.6262118,7.87145969 20.7132672,7.87145969 C21.8003226,7.87145969 22.7363231,6.98560436 22.7363231,5.89598373 L22.7363231,3.97119565 L24.6676671,3.97119565 Z M24.6705331,25.598028 C25.2110262,25.598028 25.6284501,25.1805287 25.6282815,24.6358029 L25.602319,24.6597951 L25.602319,10.8985404 L4.02305591,10.8985404 L4.02305591,24.6597951 C4.02305591,25.2014797 4.41738323,25.598028 4.96091092,25.598028 L24.6705331,25.598028 Z M20.5830989,6.97521642 C20.045641,6.97521642 19.6047143,6.52730394 19.6047143,5.9782664 L19.6047143,2.99388562 C19.6047143,2.44791248 20.0426244,2 20.5830989,2 C21.1205569,2 21.5614836,2.44501833 21.5614836,2.99388562 L21.5614836,5.98150104 C21.5614836,6.52730394 21.1235735,6.97521642 20.5830989,6.97521642 Z M13.2083446,23.342153 L9.80394152,19.8870471 C9.57065762,19.6498969 9.57065762,19.2656557 9.80394152,19.0319105 L10.6428921,18.1767739 C10.8760084,17.9425178 11.2544244,17.9425178 11.4846917,18.1767739 L13.6973694,20.4241675 L18.5153858,13.2071755 C18.6972198,12.9354658 19.0701054,12.8602178 19.3400913,13.0479972 L20.3243415,13.7271013 C20.5971764,13.9150509 20.6684017,14.2907798 20.4833835,14.564873 L14.684301,23.2526046 C14.511014,23.5125675 14.2378439,23.6831522 13.9676904,23.6831522 C13.6975369,23.6831522 13.3990609,23.5358909 13.2083446,23.342153 Z"></path>
                </g>
            </g>
        </g>
    </g>
</svg>