<?xml version="1.0" encoding="UTF-8"?>
<svg width="18px" height="18px" viewBox="0 0 18 18" version="1.1" xmlns="http://www.w3.org/2000/svg" xmlns:xlink="http://www.w3.org/1999/xlink">
    <!-- Generator: Sketch 51.3 (57544) - http://www.bohemiancoding.com/sketch -->
    <title>ico_password</title>
    <desc>Created with Sketch.</desc>
    <defs>
        <linearGradient x1="174.661662%" y1="89.9333298%" x2="-74.5954827%" y2="89.9333298%" id="linearGradient-1">
            <stop stop-color="#69C0FF" offset="0%"></stop>
            <stop stop-color="#63A0FF" offset="40.9162753%"></stop>
            <stop stop-color="#5E83FF" offset="100%"></stop>
        </linearGradient>
    </defs>
    <g id="1-登陆注册（手机号）" stroke="none" stroke-width="1" fill="none" fill-rule="evenodd">
        <g id="登录" transform="translate(-965.000000, -465.000000)" fill="url(#linearGradient-1)">
            <g id="Group-6" transform="translate(960.000000, 384.000000)">
                <g id="Group-4">
                    <g id="Group" transform="translate(1.000000, 77.000000)">
                        <g id="ico_password">
                            <path d="M15.625,4 C12.1045,4 9.25,6.8545 9.25,10.375 C9.25,11.1567205 9.3982375,11.902153 9.655762,12.594238 L4.29289322,17.9571068 C4.10535684,18.1446432 4,18.3989971 4,18.6642136 L4,21 C4,21.5522847 4.44771525,22 5,22 L6.78682395,22 L7.75,22 L7.75,21.0126838 L7.75,19.75 L10,19.75 L10,17.5 L12.25,17.5 L13.405762,16.344238 C14.097847,16.6017625 14.8432795,16.75 15.625,16.75 C19.1455,16.75 22,13.8955 22,10.375 C22,6.8545 19.1455,4 15.625,4 Z M17.2434211,6.84210526 C18.2791711,6.84210526 19.1184211,7.68135526 19.1184211,8.71710526 C19.1184211,9.75285526 18.2791711,10.5921053 17.2434211,10.5921053 C16.2076711,10.5921053 15.3684211,9.75285526 15.3684211,8.71710526 C15.3684211,7.68135526 16.2076711,6.84210526 17.2434211,6.84210526 Z" transform="translate(13.000000, 13.000000) scale(-1, 1) translate(-13.000000, -13.000000) "></path>
                        </g>
                    </g>
                </g>
            </g>
        </g>
    </g>
</svg>