<?xml version="1.0" encoding="UTF-8"?>
<svg width="36px" height="36px" viewBox="0 0 36 36" version="1.1" xmlns="http://www.w3.org/2000/svg" xmlns:xlink="http://www.w3.org/1999/xlink">
    <!-- Generator: Sketch 51.3 (57544) - http://www.bohemiancoding.com/sketch -->
    <title>orange cube</title>
    <desc>Created with Sketch.</desc>
    <defs></defs>
    <g id="2-主页" stroke="none" stroke-width="1" fill="none" fill-rule="evenodd">
        <g id="主页" transform="translate(-992.000000, -114.000000)">
            <g id="data" transform="translate(270.000000, 90.000000)">
                <g id="ico_clock" transform="translate(702.000000, 0.000000)">
                    <g transform="translate(20.000000, 24.000000)" id="orange-cube">
                        <g>
                            <rect id="Rectangle-6" fill="#FFEFD7" opacity="0.800000012" x="0" y="0" width="36" height="36" rx="10"></rect>
                            <g id="ico_clock" transform="translate(8.000000, 8.000000)" fill="#FDB000">
                                <path d="M10,19 C5.02943725,19 1,14.9705627 1,10 C1,5.02943725 5.02943725,1 10,1 C14.9705627,1 19,5.02943725 19,10 C19,14.9705627 14.9705627,19 10,19 Z M10.0740513,2.575 C9.56333706,2.575 9.15092042,2.98741627 9.15092042,3.49813056 L9.15092042,9.075 L4.84813056,9.075 C4.33741627,9.075 3.925,9.48834521 3.925,10.0090119 C3.925,10.5197262 4.33741627,10.9321429 4.84813056,10.9321429 L11.0080633,10.9321429 L11.0080633,3.49813056 C11.0080633,2.98741627 10.5947181,2.575 10.0740513,2.575 Z"></path>
                                <path d="M10,1 C5.02975,1 1,5.02975 1,10 C1,14.97025 5.02975,19 10,19 C14.97025,19 19,14.97025 19,10 C19,5.02975 14.97025,1 10,1 Z M10.75,10.75 L4.74625,10.75 C4.33375,10.75 4,10.41625 4,10.00375 L4,9.9955 C4,9.58375 4.33375,9.25 4.74625,9.25 L9.25,9.25 L9.25,3.24625 C9.25,2.83375 9.58375,2.5 9.99625,2.5 L10.0045,2.5 C10.41625,2.5 10.75,2.83375 10.75,3.24625 L10.75,10.75 Z"></path>
                            </g>
                        </g>
                    </g>
                </g>
            </g>
        </g>
    </g>
</svg>