<?xml version="1.0" encoding="UTF-8"?>
<svg width="302px" height="42px" viewBox="0 0 302 42" version="1.1" xmlns="http://www.w3.org/2000/svg" xmlns:xlink="http://www.w3.org/1999/xlink">
    <!-- Generator: Sketch 51.3 (57544) - http://www.bohemiancoding.com/sketch -->
    <title>logo _beta 1.0</title>
    <desc>Created with Sketch.</desc>
    <defs>
        <linearGradient x1="-74.5954827%" y1="89.9333298%" x2="149.507212%" y2="89.9333298%" id="linearGradient-1">
            <stop stop-color="#69C0FF" offset="0%"></stop>
            <stop stop-color="#63A0FF" offset="57.9446667%"></stop>
            <stop stop-color="#5E83FF" offset="100%"></stop>
        </linearGradient>
        <path d="M11.386504,31.9907173 L11.386504,31.9909327 C7.3689259,31.9909327 3.28710937,30.4444874 0,27.0714406 L3.71658215,22.4952687 C6.0588088,25.1806008 9.04513693,26.4052102 11.494141,26.4052102 C14.4804691,26.4052102 15.9843753,25.0302102 15.9843753,23.0968312 C15.9843753,20.7977883 14.3300785,19.9815968 10.5490432,18.6710499 C5.8220509,17.0167531 1.0954884,14.8255615 1.0954884,8.93884279 C1.0954884,3.91149904 5.52126965,0.0657959137 11.1286915,0.000913009411 C14.995879,-0.0418410149 18.605254,1.41909649 21.6560353,3.93276836 L18.0891992,8.59487774 C15.4895899,6.46792461 13.2337305,5.52218233 11.2786524,5.52218233 C9.13021487,5.52218233 7.54037112,6.68233858 7.51888674,8.65890108 C7.49740237,10.6141939 9.19466799,11.4303855 12.7829884,12.8268698 C18.1755665,14.9323386 22.4507424,16.3505221 22.4507424,22.3661471 C22.4507424,29.1981783 16.4997853,31.9907173 11.386504,31.9907173 Z M46.5748307,31.6254829 L44.4478775,25.3739596 L32.4595963,25.3739596 L30.3326432,31.6254829 L23.866061,31.6254829 L35.4459244,0.366147057 L41.4190104,0.366147057 L53.0420573,31.6254829 L46.5748307,31.6254829 Z M34.2430141,20.0888033 L42.64319,20.0888033 L38.4537369,7.82122518 L38.4109829,7.82122518 L34.2430141,20.0888033 Z M81.9352474,0.366147057 L88.1648566,0.366147057 L88.1648566,31.6254829 L82.0207551,31.6254829 L82.0207551,12.2038226 L81.956302,12.2038226 L74.3293488,25.6960101 L70.3117707,25.6960101 L62.6848176,12.2038226 L62.6205792,12.2038226 L62.6205792,31.6254829 L56.4760479,31.6254829 L56.4760479,0.366147057 L62.7065167,0.366147057 L72.3100323,18.1549948 L72.3963996,18.1549948 L81.9352474,0.366147057 Z M114.266367,31.6254829 L112.139414,25.3739596 L100.151133,25.3739596 L98.0241797,31.6254829 L91.5575975,31.6254829 L103.137461,0.366147057 L109.110547,0.366147057 L120.733594,31.6254829 L114.266367,31.6254829 Z M101.934551,20.0888033 L110.334727,20.0888033 L106.145273,7.82122518 L106.102519,7.82122518 L101.934551,20.0888033 Z M144.320358,0.366147057 L150.507644,0.366147057 L150.507644,31.6254829 L144.169968,31.6254829 L130.419968,10.9147601 L130.33403,10.9147601 L130.33403,31.6254829 L124.1678,31.6254829 L124.1678,0.366147057 L130.33403,0.366147057 L144.234206,21.4852877 L144.320358,21.4852877 L144.320358,0.366147057 Z M163.116107,31.6254829 L163.116107,5.90890075 L154.500872,5.90890075 L154.500872,0.366146729 L177.94054,0.366146729 L177.94054,5.90890075 L169.282337,5.90890075 L169.282337,31.6254829 L163.116107,31.6254829 Z M181.912285,31.6254829 L181.912285,0.366147057 L188.12127,0.366147057 L188.12127,13.9010886 L200.904473,13.9010886 L200.904473,0.366147057 L207.134942,0.366147057 L207.134942,31.6254829 L200.904473,31.6254829 L200.904473,19.4225726 L188.12127,19.4225726 L188.12127,31.6254829 L181.912285,31.6254829 Z M233.213893,31.6254829 L231.08694,25.3739596 L219.098659,25.3739596 L216.971706,31.6254829 L210.505124,31.6254829 L222.084987,0.366147057 L228.058073,0.366147057 L239.68112,31.6254829 L233.213893,31.6254829 Z M220.882077,20.0888033 L229.282253,20.0888033 L225.0928,7.82122518 L225.050046,7.82122518 L220.882077,20.0888033 Z" id="path-2"></path>
        <filter x="-3.1%" y="-20.3%" width="107.1%" height="153.1%" filterUnits="objectBoundingBox" id="filter-3">
            <feOffset dx="1" dy="2" in="SourceAlpha" result="shadowOffsetOuter1"></feOffset>
            <feGaussianBlur stdDeviation="2.5" in="shadowOffsetOuter1" result="shadowBlurOuter1"></feGaussianBlur>
            <feColorMatrix values="0 0 0 0 0.780392157   0 0 0 0 0.792156863   0 0 0 0 0.815686275  0 0 0 0.26 0" type="matrix" in="shadowBlurOuter1"></feColorMatrix>
        </filter>
        <linearGradient x1="-128.01095%" y1="49.1566564%" x2="99.1566564%" y2="49.1566564%" id="linearGradient-4">
            <stop stop-color="#48B2FF" offset="0%"></stop>
            <stop stop-color="#468FFF" offset="58.0494206%"></stop>
            <stop stop-color="#4570FF" offset="100%"></stop>
        </linearGradient>
        <path d="M248,0.168 L251.864,0.168 C252.237335,0.168 252.605998,0.21233289 252.97,0.301 C253.334002,0.38966711 253.658332,0.53433233 253.943,0.735 C254.227668,0.93566767 254.458666,1.19466508 254.636,1.512 C254.813334,1.82933492 254.902,2.21199776 254.902,2.66 C254.902,3.2200028 254.743335,3.68199818 254.426,4.046 C254.108665,4.41000182 253.693336,4.67133254 253.18,4.83 L253.18,4.858 C253.488002,4.89533352 253.774999,4.98166599 254.041,5.117 C254.307001,5.25233401 254.533332,5.42499895 254.72,5.635 C254.906668,5.84500105 255.053666,6.08766529 255.161,6.363 C255.268334,6.63833471 255.322,6.93466508 255.322,7.252 C255.322,7.79333604 255.214668,8.24366487 255,8.603 C254.785332,8.96233513 254.503002,9.25166557 254.153,9.471 C253.802998,9.69033443 253.401669,9.8466662 252.949,9.94 C252.496331,10.0333338 252.036669,10.08 251.57,10.08 L248,10.08 L248,0.168 Z M249.764,4.2 L251.374,4.2 C251.962003,4.2 252.402999,4.08566781 252.697,3.857 C252.991001,3.62833219 253.138,3.3273352 253.138,2.954 C253.138,2.52466452 252.986335,2.20500105 252.683,1.995 C252.379665,1.78499895 251.892003,1.68 251.22,1.68 L249.764,1.68 L249.764,4.2 Z M249.764,8.568 L251.388,8.568 C251.612001,8.568 251.852332,8.55400014 252.109,8.526 C252.365668,8.49799986 252.601332,8.43266718 252.816,8.33 C253.030668,8.22733282 253.207999,8.08033429 253.348,7.889 C253.488001,7.69766571 253.558,7.4386683 253.558,7.112 C253.558,6.58933072 253.387668,6.22533436 253.047,6.02 C252.706332,5.81466564 252.17667,5.712 251.458,5.712 L249.764,5.712 L249.764,8.568 Z M258.262,7.308 C258.318,7.81200252 258.513998,8.2039986 258.85,8.484 C259.186002,8.7640014 259.591998,8.904 260.068,8.904 C260.488002,8.904 260.840332,8.81766753 261.125,8.645 C261.409668,8.47233247 261.659332,8.25533464 261.874,7.994 L263.078,8.904 C262.685998,9.38933576 262.247336,9.73466564 261.762,9.94 C261.276664,10.1453344 260.768003,10.248 260.236,10.248 C259.731997,10.248 259.256002,10.1640008 258.808,9.996 C258.359998,9.82799916 257.972668,9.59000154 257.646,9.282 C257.319332,8.97399846 257.060334,8.60300217 256.869,8.169 C256.677666,7.73499783 256.582,7.25200266 256.582,6.72 C256.582,6.18799734 256.677666,5.70500217 256.869,5.271 C257.060334,4.83699783 257.319332,4.46600154 257.646,4.158 C257.972668,3.84999846 258.359998,3.61200084 258.808,3.444 C259.256002,3.27599916 259.731997,3.192 260.236,3.192 C260.702669,3.192 261.129665,3.27366585 261.517,3.437 C261.904335,3.60033415 262.235665,3.83599846 262.511,4.144 C262.786335,4.45200154 263.000999,4.83233107 263.155,5.285 C263.309001,5.73766893 263.386,6.25799706 263.386,6.846 L263.386,7.308 L258.262,7.308 Z M261.706,6.048 C261.696667,5.55333086 261.542668,5.16366809 261.244,4.879 C260.945332,4.59433191 260.530003,4.452 259.998,4.452 C259.493997,4.452 259.095001,4.59666522 258.801,4.886 C258.506999,5.17533478 258.327334,5.56266424 258.262,6.048 L261.706,6.048 Z M264.17,4.788 L264.17,3.36 L265.556,3.36 L265.556,1.414 L267.236,1.414 L267.236,3.36 L269.084,3.36 L269.084,4.788 L267.236,4.788 L267.236,7.728 C267.236,8.06400168 267.298999,8.32999902 267.425,8.526 C267.551001,8.72200098 267.800665,8.82 268.174,8.82 C268.323334,8.82 268.486666,8.80366683 268.664,8.771 C268.841334,8.73833317 268.981333,8.68466704 269.084,8.61 L269.084,10.024 C268.906666,10.1080004 268.689668,10.1663332 268.433,10.199 C268.176332,10.2316668 267.950001,10.248 267.754,10.248 C267.305998,10.248 266.939668,10.1990005 266.655,10.101 C266.370332,10.0029995 266.146334,9.85366767 265.983,9.653 C265.819666,9.45233233 265.707667,9.20266816 265.647,8.904 C265.586333,8.60533184 265.556,8.26000196 265.556,7.868 L265.556,4.788 L264.17,4.788 Z M274.6,9.156 L274.558,9.156 C274.315332,9.53866858 274.007335,9.81633247 273.634,9.989 C273.260665,10.1616675 272.850002,10.248 272.402,10.248 C272.093998,10.248 271.793001,10.2060004 271.499,10.122 C271.204999,10.0379996 270.943668,9.91200084 270.715,9.744 C270.486332,9.57599916 270.302001,9.36600126 270.162,9.114 C270.021999,8.86199874 269.952,8.56800168 269.952,8.232 C269.952,7.86799818 270.017333,7.55766795 270.148,7.301 C270.278667,7.04433205 270.453666,6.82966753 270.673,6.657 C270.892334,6.48433247 271.146665,6.34666718 271.436,6.244 C271.725335,6.14133282 272.026332,6.06433359 272.339,6.013 C272.651668,5.96166641 272.966665,5.92900007 273.284,5.915 C273.601335,5.90099993 273.899999,5.894 274.18,5.894 L274.6,5.894 L274.6,5.712 C274.6,5.2919979 274.455335,4.97700105 274.166,4.767 C273.876665,4.55699895 273.508002,4.452 273.06,4.452 C272.705332,4.452 272.374002,4.51499937 272.066,4.641 C271.757998,4.76700063 271.492001,4.93733226 271.268,5.152 L270.386,4.27 C270.759335,3.88733142 271.195664,3.61200084 271.695,3.444 C272.194336,3.27599916 272.709997,3.192 273.242,3.192 C273.718002,3.192 274.119332,3.24566613 274.446,3.353 C274.772668,3.46033387 275.043332,3.59799916 275.258,3.766 C275.472668,3.93400084 275.638333,4.12766557 275.755,4.347 C275.871667,4.56633443 275.955666,4.78799888 276.007,5.012 C276.058334,5.23600112 276.088667,5.45299895 276.098,5.663 C276.107333,5.87300105 276.112,6.05733254 276.112,6.216 L276.112,10.08 L274.6,10.08 L274.6,9.156 Z M274.502,7.07 L274.152,7.07 C273.918666,7.07 273.657335,7.07933324 273.368,7.098 C273.078665,7.11666676 272.805668,7.16099965 272.549,7.231 C272.292332,7.30100035 272.075334,7.40366599 271.898,7.539 C271.720666,7.67433401 271.632,7.86333212 271.632,8.106 C271.632,8.26466746 271.667,8.39766613 271.737,8.505 C271.807,8.61233387 271.897999,8.70333296 272.01,8.778 C272.122001,8.85266704 272.247999,8.90633317 272.388,8.939 C272.528001,8.97166683 272.667999,8.988 272.808,8.988 C273.38667,8.988 273.813665,8.85033471 274.089,8.575 C274.364335,8.29966529 274.502,7.92400238 274.502,7.448 L274.502,7.07 Z M280.718,2.1 L278.856,3.822 L277.876,2.66 L280.872,0.168 L282.398,0.168 L282.398,10.08 L280.718,10.08 L280.718,2.1 Z M286.206,9.1 C286.206,8.80133184 286.315666,8.54466774 286.535,8.33 C286.754334,8.11533226 287.017998,8.008 287.326,8.008 C287.624668,8.008 287.885999,8.11066564 288.11,8.316 C288.334001,8.52133436 288.446,8.77333184 288.446,9.072 C288.446,9.37066816 288.336334,9.62733226 288.117,9.842 C287.897666,10.0566677 287.634002,10.164 287.326,10.164 C287.176666,10.164 287.034334,10.1360003 286.899,10.08 C286.763666,10.0239997 286.644667,9.9493338 286.542,9.856 C286.439333,9.7626662 286.357667,9.65066732 286.297,9.52 C286.236333,9.38933268 286.206,9.24933408 286.206,9.1 Z M289.958,5.124 C289.958,4.33999608 290.020999,3.67033611 290.147,3.115 C290.273001,2.55966389 290.438666,2.09300189 290.644,1.715 C290.849334,1.33699811 291.080332,1.03366781 291.337,0.805 C291.593668,0.57633219 291.854999,0.40366725 292.121,0.287 C292.387001,0.17033275 292.643665,0.09333352 292.891,0.056 C293.138335,0.01866648 293.355332,0 293.542,0 C293.728668,0 293.945665,0.01866648 294.193,0.056 C294.440335,0.09333352 294.696999,0.17033275 294.963,0.287 C295.229001,0.40366725 295.490332,0.57633219 295.747,0.805 C296.003668,1.03366781 296.234666,1.33699811 296.44,1.715 C296.645334,2.09300189 296.810999,2.55966389 296.937,3.115 C297.063001,3.67033611 297.126,4.33999608 297.126,5.124 C297.126,5.90800392 297.063001,6.57766389 296.937,7.133 C296.810999,7.68833611 296.645334,8.15499811 296.44,8.533 C296.234666,8.91100189 296.003668,9.21433219 295.747,9.443 C295.490332,9.67166781 295.229001,9.84433275 294.963,9.961 C294.696999,10.0776673 294.440335,10.1546665 294.193,10.192 C293.945665,10.2293335 293.728668,10.248 293.542,10.248 C293.355332,10.248 293.138335,10.2293335 292.891,10.192 C292.643665,10.1546665 292.387001,10.0776673 292.121,9.961 C291.854999,9.84433275 291.593668,9.67166781 291.337,9.443 C291.080332,9.21433219 290.849334,8.91100189 290.644,8.533 C290.438666,8.15499811 290.273001,7.68833611 290.147,7.133 C290.020999,6.57766389 289.958,5.90800392 289.958,5.124 Z M291.638,5.124 C291.638,5.43200154 291.659,5.78899797 291.701,6.195 C291.743,6.60100203 291.829333,6.98599818 291.96,7.35 C292.090667,7.71400182 292.281999,8.02199874 292.534,8.274 C292.786001,8.52600126 293.121998,8.652 293.542,8.652 C293.962002,8.652 294.297999,8.52600126 294.55,8.274 C294.802001,8.02199874 294.993333,7.71400182 295.124,7.35 C295.254667,6.98599818 295.341,6.60100203 295.383,6.195 C295.425,5.78899797 295.446,5.43200154 295.446,5.124 C295.446,4.81599846 295.425,4.45900203 295.383,4.053 C295.341,3.64699797 295.254667,3.26200182 295.124,2.898 C294.993333,2.53399818 294.802001,2.22600126 294.55,1.974 C294.297999,1.72199874 293.962002,1.596 293.542,1.596 C293.121998,1.596 292.786001,1.72199874 292.534,1.974 C292.281999,2.22600126 292.090667,2.53399818 291.96,2.898 C291.829333,3.26200182 291.743,3.64699797 291.701,4.053 C291.659,4.45900203 291.638,4.81599846 291.638,5.124 Z" id="path-5"></path>
    </defs>
    <g id="1-登陆注册（手机号）" stroke="none" stroke-width="1" fill="none" fill-rule="evenodd">
        <g id="登录" transform="translate(-957.000000, -222.000000)">
            <g id="logo-_beta-1.0" transform="translate(961.000000, 225.000000)">
                <g id="logo-samantha">
                    <use fill="black" fill-opacity="1" filter="url(#filter-3)" xlink:href="#path-2"></use>
                    <use fill="url(#linearGradient-1)" fill-rule="evenodd" xlink:href="#path-2"></use>
                </g>
                <g id="Beta1.0">
                    <use fill="#ACB5C1" xlink:href="#path-5"></use>
                    <use fill="url(#linearGradient-4)" xlink:href="#path-5"></use>
                </g>
            </g>
        </g>
    </g>
</svg>