<?xml version="1.0" encoding="UTF-8"?>
<svg width="314px" height="42px" viewBox="0 0 314 42" version="1.1" xmlns="http://www.w3.org/2000/svg" xmlns:xlink="http://www.w3.org/1999/xlink">
    <!-- Generator: Sketch 51.2 (57519) - http://www.bohemiancoding.com/sketch -->
    <title>logo _beta 1.0.9</title>
    <desc>Created with Sketch.</desc>
    <defs>
        <linearGradient x1="-74.5954827%" y1="89.9333298%" x2="149.507212%" y2="89.9333298%" id="linearGradient-1">
            <stop stop-color="#69C0FF" offset="0%"></stop>
            <stop stop-color="#63A0FF" offset="57.9446667%"></stop>
            <stop stop-color="#5E83FF" offset="100%"></stop>
        </linearGradient>
        <path d="M11.386504,35.9907173 L11.386504,35.9909327 C7.3689259,35.9909327 3.28710937,34.4444874 0,31.0714406 L3.71658215,26.4952687 C6.0588088,29.1806008 9.04513693,30.4052102 11.494141,30.4052102 C14.4804691,30.4052102 15.9843753,29.0302102 15.9843753,27.0968312 C15.9843753,24.7977883 14.3300785,23.9815968 10.5490432,22.6710499 C5.8220509,21.0167531 1.0954884,18.8255615 1.0954884,12.9388428 C1.0954884,7.91149904 5.52126965,4.06579591 11.1286915,4.00091301 C14.995879,3.95815899 18.605254,5.41909649 21.6560353,7.93276836 L18.0891992,12.5948777 C15.4895899,10.4679246 13.2337305,9.52218233 11.2786524,9.52218233 C9.13021487,9.52218233 7.54037112,10.6823386 7.51888674,12.6589011 C7.49740237,14.6141939 9.19466799,15.4303855 12.7829884,16.8268698 C18.1755665,18.9323386 22.4507424,20.3505221 22.4507424,26.3661471 C22.4507424,33.1981783 16.4997853,35.9907173 11.386504,35.9907173 Z M46.5748307,35.6254829 L44.4478775,29.3739596 L32.4595963,29.3739596 L30.3326432,35.6254829 L23.866061,35.6254829 L35.4459244,4.36614706 L41.4190104,4.36614706 L53.0420573,35.6254829 L46.5748307,35.6254829 Z M34.2430141,24.0888033 L42.64319,24.0888033 L38.4537369,11.8212252 L38.4109829,11.8212252 L34.2430141,24.0888033 Z M81.9352474,4.36614706 L88.1648566,4.36614706 L88.1648566,35.6254829 L82.0207551,35.6254829 L82.0207551,16.2038226 L81.956302,16.2038226 L74.3293488,29.6960101 L70.3117707,29.6960101 L62.6848176,16.2038226 L62.6205792,16.2038226 L62.6205792,35.6254829 L56.4760479,35.6254829 L56.4760479,4.36614706 L62.7065167,4.36614706 L72.3100323,22.1549948 L72.3963996,22.1549948 L81.9352474,4.36614706 Z M114.266367,35.6254829 L112.139414,29.3739596 L100.151133,29.3739596 L98.0241797,35.6254829 L91.5575975,35.6254829 L103.137461,4.36614706 L109.110547,4.36614706 L120.733594,35.6254829 L114.266367,35.6254829 Z M101.934551,24.0888033 L110.334727,24.0888033 L106.145273,11.8212252 L106.102519,11.8212252 L101.934551,24.0888033 Z M144.320358,4.36614706 L150.507644,4.36614706 L150.507644,35.6254829 L144.169968,35.6254829 L130.419968,14.9147601 L130.33403,14.9147601 L130.33403,35.6254829 L124.1678,35.6254829 L124.1678,4.36614706 L130.33403,4.36614706 L144.234206,25.4852877 L144.320358,25.4852877 L144.320358,4.36614706 Z M163.116107,35.6254829 L163.116107,9.90890075 L154.500872,9.90890075 L154.500872,4.36614673 L177.94054,4.36614673 L177.94054,9.90890075 L169.282337,9.90890075 L169.282337,35.6254829 L163.116107,35.6254829 Z M181.912285,35.6254829 L181.912285,4.36614706 L188.12127,4.36614706 L188.12127,17.9010886 L200.904473,17.9010886 L200.904473,4.36614706 L207.134942,4.36614706 L207.134942,35.6254829 L200.904473,35.6254829 L200.904473,23.4225726 L188.12127,23.4225726 L188.12127,35.6254829 L181.912285,35.6254829 Z M233.213893,35.6254829 L231.08694,29.3739596 L219.098659,29.3739596 L216.971706,35.6254829 L210.505124,35.6254829 L222.084987,4.36614706 L228.058073,4.36614706 L239.68112,35.6254829 L233.213893,35.6254829 Z M220.882077,24.0888033 L229.282253,24.0888033 L225.0928,11.8212252 L225.050046,11.8212252 L220.882077,24.0888033 Z" id="path-2"></path>
        <filter x="-3.1%" y="-20.3%" width="107.1%" height="153.1%" filterUnits="objectBoundingBox" id="filter-3">
            <feOffset dx="1" dy="2" in="SourceAlpha" result="shadowOffsetOuter1"></feOffset>
            <feGaussianBlur stdDeviation="2.5" in="shadowOffsetOuter1" result="shadowBlurOuter1"></feGaussianBlur>
            <feColorMatrix values="0 0 0 0 0.780392157   0 0 0 0 0.792156863   0 0 0 0 0.815686275  0 0 0 0.26 0" type="matrix" in="shadowBlurOuter1"></feColorMatrix>
        </filter>
        <linearGradient x1="-128.01095%" y1="49.1566564%" x2="99.1566564%" y2="49.1566564%" id="linearGradient-4">
            <stop stop-color="#48B2FF" offset="0%"></stop>
            <stop stop-color="#468FFF" offset="58.0494206%"></stop>
            <stop stop-color="#4570FF" offset="100%"></stop>
        </linearGradient>
        <path d="M248.106,4.088 L251.97,4.088 C252.343335,4.088 252.711998,4.13233289 253.076,4.221 C253.440002,4.30966711 253.764332,4.45433233 254.049,4.655 C254.333668,4.85566767 254.564666,5.11466508 254.742,5.432 C254.919334,5.74933492 255.008,6.13199776 255.008,6.58 C255.008,7.1400028 254.849335,7.60199818 254.532,7.966 C254.214665,8.33000182 253.799336,8.59133254 253.286,8.75 L253.286,8.778 C253.594002,8.81533352 253.880999,8.90166599 254.147,9.037 C254.413001,9.17233401 254.639332,9.34499895 254.826,9.555 C255.012668,9.76500105 255.159666,10.0076653 255.267,10.283 C255.374334,10.5583347 255.428,10.8546651 255.428,11.172 C255.428,11.713336 255.320668,12.1636649 255.106,12.523 C254.891332,12.8823351 254.609002,13.1716656 254.259,13.391 C253.908998,13.6103344 253.507669,13.7666662 253.055,13.86 C252.602331,13.9533338 252.142669,14 251.676,14 L248.106,14 L248.106,4.088 Z M249.87,8.12 L251.48,8.12 C252.068003,8.12 252.508999,8.00566781 252.803,7.777 C253.097001,7.54833219 253.244,7.2473352 253.244,6.874 C253.244,6.44466452 253.092335,6.12500105 252.789,5.915 C252.485665,5.70499895 251.998003,5.6 251.326,5.6 L249.87,5.6 L249.87,8.12 Z M249.87,12.488 L251.494,12.488 C251.718001,12.488 251.958332,12.4740001 252.215,12.446 C252.471668,12.4179999 252.707332,12.3526672 252.922,12.25 C253.136668,12.1473328 253.313999,12.0003343 253.454,11.809 C253.594001,11.6176657 253.664,11.3586683 253.664,11.032 C253.664,10.5093307 253.493668,10.1453344 253.153,9.94 C252.812332,9.73466564 252.28267,9.632 251.564,9.632 L249.87,9.632 L249.87,12.488 Z M258.368,11.228 C258.424,11.7320025 258.619998,12.1239986 258.956,12.404 C259.292002,12.6840014 259.697998,12.824 260.174,12.824 C260.594002,12.824 260.946332,12.7376675 261.231,12.565 C261.515668,12.3923325 261.765332,12.1753346 261.98,11.914 L263.184,12.824 C262.791998,13.3093358 262.353336,13.6546656 261.868,13.86 C261.382664,14.0653344 260.874003,14.168 260.342,14.168 C259.837997,14.168 259.362002,14.0840008 258.914,13.916 C258.465998,13.7479992 258.078668,13.5100015 257.752,13.202 C257.425332,12.8939985 257.166334,12.5230022 256.975,12.089 C256.783666,11.6549978 256.688,11.1720027 256.688,10.64 C256.688,10.1079973 256.783666,9.62500217 256.975,9.191 C257.166334,8.75699783 257.425332,8.38600154 257.752,8.078 C258.078668,7.76999846 258.465998,7.53200084 258.914,7.364 C259.362002,7.19599916 259.837997,7.112 260.342,7.112 C260.808669,7.112 261.235665,7.19366585 261.623,7.357 C262.010335,7.52033415 262.341665,7.75599846 262.617,8.064 C262.892335,8.37200154 263.106999,8.75233107 263.261,9.205 C263.415001,9.65766893 263.492,10.1779971 263.492,10.766 L263.492,11.228 L258.368,11.228 Z M261.812,9.968 C261.802667,9.47333086 261.648668,9.08366809 261.35,8.799 C261.051332,8.51433191 260.636003,8.372 260.104,8.372 C259.599997,8.372 259.201001,8.51666522 258.907,8.806 C258.612999,9.09533478 258.433334,9.48266424 258.368,9.968 L261.812,9.968 Z M264.276,8.708 L264.276,7.28 L265.662,7.28 L265.662,5.334 L267.342,5.334 L267.342,7.28 L269.19,7.28 L269.19,8.708 L267.342,8.708 L267.342,11.648 C267.342,11.9840017 267.404999,12.249999 267.531,12.446 C267.657001,12.642001 267.906665,12.74 268.28,12.74 C268.429334,12.74 268.592666,12.7236668 268.77,12.691 C268.947334,12.6583332 269.087333,12.604667 269.19,12.53 L269.19,13.944 C269.012666,14.0280004 268.795668,14.0863332 268.539,14.119 C268.282332,14.1516668 268.056001,14.168 267.86,14.168 C267.411998,14.168 267.045668,14.1190005 266.761,14.021 C266.476332,13.9229995 266.252334,13.7736677 266.089,13.573 C265.925666,13.3723323 265.813667,13.1226682 265.753,12.824 C265.692333,12.5253318 265.662,12.180002 265.662,11.788 L265.662,8.708 L264.276,8.708 Z M274.706,13.076 L274.664,13.076 C274.421332,13.4586686 274.113335,13.7363325 273.74,13.909 C273.366665,14.0816675 272.956002,14.168 272.508,14.168 C272.199998,14.168 271.899001,14.1260004 271.605,14.042 C271.310999,13.9579996 271.049668,13.8320008 270.821,13.664 C270.592332,13.4959992 270.408001,13.2860013 270.268,13.034 C270.127999,12.7819987 270.058,12.4880017 270.058,12.152 C270.058,11.7879982 270.123333,11.477668 270.254,11.221 C270.384667,10.9643321 270.559666,10.7496675 270.779,10.577 C270.998334,10.4043325 271.252665,10.2666672 271.542,10.164 C271.831335,10.0613328 272.132332,9.98433359 272.445,9.933 C272.757668,9.88166641 273.072665,9.84900007 273.39,9.835 C273.707335,9.82099993 274.005999,9.814 274.286,9.814 L274.706,9.814 L274.706,9.632 C274.706,9.2119979 274.561335,8.89700105 274.272,8.687 C273.982665,8.47699895 273.614002,8.372 273.166,8.372 C272.811332,8.372 272.480002,8.43499937 272.172,8.561 C271.863998,8.68700063 271.598001,8.85733226 271.374,9.072 L270.492,8.19 C270.865335,7.80733142 271.301664,7.53200084 271.801,7.364 C272.300336,7.19599916 272.815997,7.112 273.348,7.112 C273.824002,7.112 274.225332,7.16566613 274.552,7.273 C274.878668,7.38033387 275.149332,7.51799916 275.364,7.686 C275.578668,7.85400084 275.744333,8.04766557 275.861,8.267 C275.977667,8.48633443 276.061666,8.70799888 276.113,8.932 C276.164334,9.15600112 276.194667,9.37299895 276.204,9.583 C276.213333,9.79300105 276.218,9.97733254 276.218,10.136 L276.218,14 L274.706,14 L274.706,13.076 Z M274.608,10.99 L274.258,10.99 C274.024666,10.99 273.763335,10.9993332 273.474,11.018 C273.184665,11.0366668 272.911668,11.0809996 272.655,11.151 C272.398332,11.2210004 272.181334,11.323666 272.004,11.459 C271.826666,11.594334 271.738,11.7833321 271.738,12.026 C271.738,12.1846675 271.773,12.3176661 271.843,12.425 C271.913,12.5323339 272.003999,12.623333 272.116,12.698 C272.228001,12.772667 272.353999,12.8263332 272.494,12.859 C272.634001,12.8916668 272.773999,12.908 272.914,12.908 C273.49267,12.908 273.919665,12.7703347 274.195,12.495 C274.470335,12.2196653 274.608,11.8440024 274.608,11.368 L274.608,10.99 Z M280.824,6.02 L278.962,7.742 L277.982,6.58 L280.978,4.088 L282.504,4.088 L282.504,14 L280.824,14 L280.824,6.02 Z M286.312,13.02 C286.312,12.7213318 286.421666,12.4646677 286.641,12.25 C286.860334,12.0353323 287.123998,11.928 287.432,11.928 C287.730668,11.928 287.991999,12.0306656 288.216,12.236 C288.440001,12.4413344 288.552,12.6933318 288.552,12.992 C288.552,13.2906682 288.442334,13.5473323 288.223,13.762 C288.003666,13.9766677 287.740002,14.084 287.432,14.084 C287.282666,14.084 287.140334,14.0560003 287.005,14 C286.869666,13.9439997 286.750667,13.8693338 286.648,13.776 C286.545333,13.6826662 286.463667,13.5706673 286.403,13.44 C286.342333,13.3093327 286.312,13.1693341 286.312,13.02 Z M290.064,9.044 C290.064,8.25999608 290.126999,7.59033611 290.253,7.035 C290.379001,6.47966389 290.544666,6.01300189 290.75,5.635 C290.955334,5.25699811 291.186332,4.95366781 291.443,4.725 C291.699668,4.49633219 291.960999,4.32366725 292.227,4.207 C292.493001,4.09033275 292.749665,4.01333352 292.997,3.976 C293.244335,3.93866648 293.461332,3.92 293.648,3.92 C293.834668,3.92 294.051665,3.93866648 294.299,3.976 C294.546335,4.01333352 294.802999,4.09033275 295.069,4.207 C295.335001,4.32366725 295.596332,4.49633219 295.853,4.725 C296.109668,4.95366781 296.340666,5.25699811 296.546,5.635 C296.751334,6.01300189 296.916999,6.47966389 297.043,7.035 C297.169001,7.59033611 297.232,8.25999608 297.232,9.044 C297.232,9.82800392 297.169001,10.4976639 297.043,11.053 C296.916999,11.6083361 296.751334,12.0749981 296.546,12.453 C296.340666,12.8310019 296.109668,13.1343322 295.853,13.363 C295.596332,13.5916678 295.335001,13.7643328 295.069,13.881 C294.802999,13.9976672 294.546335,14.0746665 294.299,14.112 C294.051665,14.1493335 293.834668,14.168 293.648,14.168 C293.461332,14.168 293.244335,14.1493335 292.997,14.112 C292.749665,14.0746665 292.493001,13.9976672 292.227,13.881 C291.960999,13.7643328 291.699668,13.5916678 291.443,13.363 C291.186332,13.1343322 290.955334,12.8310019 290.75,12.453 C290.544666,12.0749981 290.379001,11.6083361 290.253,11.053 C290.126999,10.4976639 290.064,9.82800392 290.064,9.044 Z M291.744,9.044 C291.744,9.35200154 291.765,9.70899797 291.807,10.115 C291.849,10.521002 291.935333,10.9059982 292.066,11.27 C292.196667,11.6340018 292.387999,11.9419987 292.64,12.194 C292.892001,12.4460013 293.227998,12.572 293.648,12.572 C294.068002,12.572 294.403999,12.4460013 294.656,12.194 C294.908001,11.9419987 295.099333,11.6340018 295.23,11.27 C295.360667,10.9059982 295.447,10.521002 295.489,10.115 C295.531,9.70899797 295.552,9.35200154 295.552,9.044 C295.552,8.73599846 295.531,8.37900203 295.489,7.973 C295.447,7.56699797 295.360667,7.18200182 295.23,6.818 C295.099333,6.45399818 294.908001,6.14600126 294.656,5.894 C294.403999,5.64199874 294.068002,5.516 293.648,5.516 C293.227998,5.516 292.892001,5.64199874 292.64,5.894 C292.387999,6.14600126 292.196667,6.45399818 292.066,6.818 C291.935333,7.18200182 291.849,7.56699797 291.807,7.973 C291.765,8.37900203 291.744,8.73599846 291.744,9.044 Z M298.744,13.02 C298.744,12.7213318 298.853666,12.4646677 299.073,12.25 C299.292334,12.0353323 299.555998,11.928 299.864,11.928 C300.162668,11.928 300.423999,12.0306656 300.648,12.236 C300.872001,12.4413344 300.984,12.6933318 300.984,12.992 C300.984,13.2906682 300.874334,13.5473323 300.655,13.762 C300.435666,13.9766677 300.172002,14.084 299.864,14.084 C299.714666,14.084 299.572334,14.0560003 299.437,14 C299.301666,13.9439997 299.182667,13.8693338 299.08,13.776 C298.977333,13.6826662 298.895667,13.5706673 298.835,13.44 C298.774333,13.3093327 298.744,13.1693341 298.744,13.02 Z M304.106,14 L306.486,10.332 L306.458,10.304 C306.355333,10.3600003 306.217668,10.4019999 306.045,10.43 C305.872332,10.4580001 305.702001,10.472 305.534,10.472 C305.095331,10.472 304.694002,10.3880008 304.33,10.22 C303.965998,10.0519992 303.651001,9.82333478 303.385,9.534 C303.118999,9.24466522 302.913667,8.90866858 302.769,8.526 C302.624333,8.14333142 302.552,7.73733548 302.552,7.308 C302.552,6.7946641 302.640666,6.3280021 302.818,5.908 C302.995334,5.4879979 303.240332,5.13100147 303.553,4.837 C303.865668,4.54299853 304.238998,4.31666746 304.673,4.158 C305.107002,3.99933254 305.575997,3.92 306.08,3.92 C306.593336,3.92 307.066998,3.99699923 307.501,4.151 C307.935002,4.30500077 308.308332,4.52666522 308.621,4.816 C308.933668,5.10533478 309.176332,5.4599979 309.349,5.88 C309.521668,6.3000021 309.608,6.77133072 309.608,7.294 C309.608,7.81666928 309.521668,8.29033121 309.349,8.715 C309.176332,9.13966879 308.954668,9.57133114 308.684,10.01 L306.15,14 L304.106,14 Z M307.844,7.322 C307.844,7.06999874 307.797334,6.83433443 307.704,6.615 C307.610666,6.39566557 307.482334,6.20433415 307.319,6.041 C307.155666,5.87766585 306.964334,5.7493338 306.745,5.656 C306.525666,5.5626662 306.290001,5.516 306.038,5.516 C305.785999,5.516 305.550334,5.5626662 305.331,5.656 C305.111666,5.7493338 304.920334,5.87766585 304.757,6.041 C304.593666,6.20433415 304.465334,6.39566557 304.372,6.615 C304.278666,6.83433443 304.232,7.06999874 304.232,7.322 C304.232,7.57400126 304.278666,7.80966557 304.372,8.029 C304.465334,8.24833443 304.593666,8.43966585 304.757,8.603 C304.920334,8.76633415 305.111666,8.8946662 305.331,8.988 C305.550334,9.0813338 305.785999,9.128 306.038,9.128 C306.290001,9.128 306.525666,9.0813338 306.745,8.988 C306.964334,8.8946662 307.155666,8.76633415 307.319,8.603 C307.482334,8.43966585 307.610666,8.24833443 307.704,8.029 C307.797334,7.80966557 307.844,7.57400126 307.844,7.322 Z" id="path-5"></path>
    </defs>
    <g id="1-登陆注册（手机号）" stroke="none" stroke-width="1" fill="none" fill-rule="evenodd">
        <g id="注册-完成登录" transform="translate(-957.000000, -222.000000)">
            <g id="logo-_beta-1.0.9" transform="translate(961.000000, 221.000000)">
                <g id="logo-samantha">
                    <use fill="black" fill-opacity="1" filter="url(#filter-3)" xlink:href="#path-2"></use>
                    <use fill="url(#linearGradient-1)" fill-rule="evenodd" xlink:href="#path-2"></use>
                </g>
                <g id="Beta1.0.9">
                    <use fill="#ACB5C1" xlink:href="#path-5"></use>
                    <use fill="#ACB5C1" xlink:href="#path-5"></use>
                    <use fill="url(#linearGradient-4)" xlink:href="#path-5"></use>
                </g>
            </g>
        </g>
    </g>
</svg>