<?xml version="1.0" encoding="UTF-8"?>
<svg width="249px" height="76px" viewBox="0 0 249 76" version="1.1" xmlns="http://www.w3.org/2000/svg" xmlns:xlink="http://www.w3.org/1999/xlink">
    <!-- Generator: Sketch 51.2 (57519) - http://www.bohemiancoding.com/sketch -->
    <title>logo _后台</title>
    <desc>Created with Sketch.</desc>
    <defs>
        <linearGradient x1="-74.5954827%" y1="89.9333298%" x2="149.507212%" y2="89.9333298%" id="linearGradient-1">
            <stop stop-color="#69C0FF" offset="0%"></stop>
            <stop stop-color="#63A0FF" offset="57.9446667%"></stop>
            <stop stop-color="#5E83FF" offset="100%"></stop>
        </linearGradient>
        <path d="M11.386504,31.9907173 L11.386504,31.9909327 C7.3689259,31.9909327 3.28710937,30.4444874 0,27.0714406 L3.71658215,22.4952687 C6.0588088,25.1806008 9.04513693,26.4052102 11.494141,26.4052102 C14.4804691,26.4052102 15.9843753,25.0302102 15.9843753,23.0968312 C15.9843753,20.7977883 14.3300785,19.9815968 10.5490432,18.6710499 C5.8220509,17.0167531 1.0954884,14.8255615 1.0954884,8.93884279 C1.0954884,3.91149904 5.52126965,0.0657959137 11.1286915,0.000913009411 C14.995879,-0.0418410149 18.605254,1.41909649 21.6560353,3.93276836 L18.0891992,8.59487774 C15.4895899,6.46792461 13.2337305,5.52218233 11.2786524,5.52218233 C9.13021487,5.52218233 7.54037112,6.68233858 7.51888674,8.65890108 C7.49740237,10.6141939 9.19466799,11.4303855 12.7829884,12.8268698 C18.1755665,14.9323386 22.4507424,16.3505221 22.4507424,22.3661471 C22.4507424,29.1981783 16.4997853,31.9907173 11.386504,31.9907173 Z M46.5748307,31.6254829 L44.4478775,25.3739596 L32.4595963,25.3739596 L30.3326432,31.6254829 L23.866061,31.6254829 L35.4459244,0.366147057 L41.4190104,0.366147057 L53.0420573,31.6254829 L46.5748307,31.6254829 Z M34.2430141,20.0888033 L42.64319,20.0888033 L38.4537369,7.82122518 L38.4109829,7.82122518 L34.2430141,20.0888033 Z M81.9352474,0.366147057 L88.1648566,0.366147057 L88.1648566,31.6254829 L82.0207551,31.6254829 L82.0207551,12.2038226 L81.956302,12.2038226 L74.3293488,25.6960101 L70.3117707,25.6960101 L62.6848176,12.2038226 L62.6205792,12.2038226 L62.6205792,31.6254829 L56.4760479,31.6254829 L56.4760479,0.366147057 L62.7065167,0.366147057 L72.3100323,18.1549948 L72.3963996,18.1549948 L81.9352474,0.366147057 Z M114.266367,31.6254829 L112.139414,25.3739596 L100.151133,25.3739596 L98.0241797,31.6254829 L91.5575975,31.6254829 L103.137461,0.366147057 L109.110547,0.366147057 L120.733594,31.6254829 L114.266367,31.6254829 Z M101.934551,20.0888033 L110.334727,20.0888033 L106.145273,7.82122518 L106.102519,7.82122518 L101.934551,20.0888033 Z M144.320358,0.366147057 L150.507644,0.366147057 L150.507644,31.6254829 L144.169968,31.6254829 L130.419968,10.9147601 L130.33403,10.9147601 L130.33403,31.6254829 L124.1678,31.6254829 L124.1678,0.366147057 L130.33403,0.366147057 L144.234206,21.4852877 L144.320358,21.4852877 L144.320358,0.366147057 Z M163.116107,31.6254829 L163.116107,5.90890075 L154.500872,5.90890075 L154.500872,0.366146729 L177.94054,0.366146729 L177.94054,5.90890075 L169.282337,5.90890075 L169.282337,31.6254829 L163.116107,31.6254829 Z M181.912285,31.6254829 L181.912285,0.366147057 L188.12127,0.366147057 L188.12127,13.9010886 L200.904473,13.9010886 L200.904473,0.366147057 L207.134942,0.366147057 L207.134942,31.6254829 L200.904473,31.6254829 L200.904473,19.4225726 L188.12127,19.4225726 L188.12127,31.6254829 L181.912285,31.6254829 Z M233.213893,31.6254829 L231.08694,25.3739596 L219.098659,25.3739596 L216.971706,31.6254829 L210.505124,31.6254829 L222.084987,0.366147057 L228.058073,0.366147057 L239.68112,31.6254829 L233.213893,31.6254829 Z M220.882077,20.0888033 L229.282253,20.0888033 L225.0928,7.82122518 L225.050046,7.82122518 L220.882077,20.0888033 Z" id="path-2"></path>
        <filter x="-3.1%" y="-20.3%" width="107.1%" height="153.1%" filterUnits="objectBoundingBox" id="filter-3">
            <feOffset dx="1" dy="2" in="SourceAlpha" result="shadowOffsetOuter1"></feOffset>
            <feGaussianBlur stdDeviation="2.5" in="shadowOffsetOuter1" result="shadowBlurOuter1"></feGaussianBlur>
            <feColorMatrix values="0 0 0 0 0.780392157   0 0 0 0 0.792156863   0 0 0 0 0.815686275  0 0 0 0.26 0" type="matrix" in="shadowBlurOuter1"></feColorMatrix>
        </filter>
        <linearGradient x1="-39.9291992%" y1="89.9333298%" x2="124.236811%" y2="89.9333298%" id="linearGradient-4">
            <stop stop-color="#69C0FF" offset="0%"></stop>
            <stop stop-color="#66AEFF" offset="23.8475113%"></stop>
            <stop stop-color="#64A7FF" offset="36.6534231%"></stop>
            <stop stop-color="#63A0FF" offset="49.3352402%"></stop>
            <stop stop-color="#5E83FF" offset="100%"></stop>
        </linearGradient>
        <path d="M4.09375,8.3359375 C4.09375,11.4817866 3.47396453,14.1171769 2.234375,16.2421875 C1.64062203,15.7005181 0.958337187,15.1276072 0.1875,14.5234375 C1.31250563,12.8567625 1.875,10.6744927 1.875,7.9765625 L1.875,1.9609375 C6.86460828,1.81510344 10.8437352,1.54427281 13.8125,1.1484375 L15.171875,3.1953125 C12.17186,3.5286475 8.47918859,3.78906156 4.09375,3.9765625 L4.09375,5.3984375 L15.484375,5.3984375 L15.484375,7.4765625 L4.09375,7.4765625 L4.09375,8.3359375 Z M4.9375,16.0859375 L4.9375,8.8984375 L14.53125,8.8984375 L14.53125,16.0859375 L12.34375,16.0859375 L12.34375,15.4296875 L7.125,15.4296875 L7.125,16.0859375 L4.9375,16.0859375 Z M12.34375,10.9296875 L7.125,10.9296875 L7.125,13.3984375 L12.34375,13.3984375 L12.34375,10.9296875 Z M29.515625,2.5390625 C31.1197997,4.10157031 32.6041598,5.63801328 33.96875,7.1484375 L32.234375,8.6171875 L31.015625,7.1796875 C26.5364359,7.25260453 22.6458498,7.44010266 19.34375,7.7421875 L18.515625,5.8984375 C20.5677186,4.62759781 22.5989483,2.8255325 24.609375,0.4921875 L26.65625,1.6015625 C25.1770759,2.99740281 23.6145916,4.3619725 21.96875,5.6953125 L29.484375,5.4296875 L27.890625,3.6796875 L29.515625,2.5390625 Z M19.984375,16.0703125 L19.984375,8.7421875 L32.015625,8.7421875 L32.015625,16.0703125 L29.890625,16.0703125 L29.890625,15.1484375 L22.109375,15.1484375 L22.109375,16.0703125 L19.984375,16.0703125 Z M29.890625,10.6796875 L22.109375,10.6796875 L22.109375,13.2109375 L29.890625,13.2109375 L29.890625,10.6796875 Z M36.71875,4.9296875 L37.53125,4.9296875 C37.2916655,4.61718594 36.875003,4.14323234 36.28125,3.5078125 C37.4166723,2.674475 38.2395808,1.72656781 38.75,0.6640625 L40.90625,0.6640625 C40.7395825,1.03906437 40.5625009,1.39843578 40.375,1.7421875 L44.40625,1.7421875 L44.40625,3.2265625 L41.40625,3.2265625 C41.7187516,3.57031422 42.0260402,3.91406078 42.328125,4.2578125 L41.421875,4.9296875 L42.9375,4.9296875 C42.8437495,4.65885281 42.7500005,4.38281391 42.65625,4.1015625 L44.421875,3.8046875 C44.5364589,4.16927266 44.6510411,4.54426891 44.765625,4.9296875 L48.359375,4.9296875 C47.9322895,4.38801813 47.5572933,3.94531422 47.234375,3.6015625 L47.71875,3.2265625 L47.015625,3.2265625 C46.6718733,3.76823187 46.2864605,4.27343516 45.859375,4.7421875 C45.5572902,4.51301969 45.0052123,4.13281516 44.203125,3.6015625 C44.9531287,2.77864172 45.5677059,1.79948484 46.046875,0.6640625 L48.21875,0.6640625 C48.0937494,1.03906437 47.9531258,1.39843578 47.796875,1.7421875 L51.40625,1.7421875 L51.40625,3.2265625 L49.0625,3.2265625 C49.3437514,3.52864734 49.6197903,3.83072766 49.890625,4.1328125 L48.796875,4.9296875 L51.34375,4.9296875 L51.34375,7.1796875 L49.21875,7.1796875 L49.21875,6.5234375 L38.84375,6.5234375 L38.84375,7.1796875 L36.71875,7.1796875 L36.71875,4.9296875 Z M48.25,13.3046875 L40.3125,13.3046875 L40.3125,14.2109375 L48.25,14.2109375 L48.25,13.3046875 Z M47.75,9.7421875 L47.75,8.8984375 L40.3125,8.8984375 L40.3125,9.7421875 L47.75,9.7421875 Z M37.5625,4.9296875 L40.71875,4.9296875 C40.4374986,4.57551906 40.1093769,4.17448141 39.734375,3.7265625 L40.375,3.2265625 L39.34375,3.2265625 C38.8229141,3.86198234 38.22917,4.429685 37.5625,4.9296875 Z M49.78125,7.4609375 L49.78125,11.1796875 L40.3125,11.1796875 L40.3125,11.8671875 L50.28125,11.8671875 L50.28125,16.1328125 L48.25,16.1328125 L48.25,15.6328125 L40.3125,15.6328125 L40.3125,16.1328125 L38.1875,16.1328125 L38.1875,7.4609375 L49.78125,7.4609375 Z M54.640625,15.2578125 L54.203125,13.0390625 L56.0625,12.6171875 L56.0625,8.7734375 L54.5625,8.7734375 L54.5625,6.8359375 L56.0625,6.8359375 L56.0625,3.5546875 L54.5,3.5546875 L54.5,1.5859375 L59.625,1.5859375 L59.625,3.5546875 L58.0625,3.5546875 L58.0625,6.8359375 L59.515625,6.8359375 L59.515625,8.7734375 L58.0625,8.7734375 L58.0625,12.109375 C58.6197945,11.9583326 59.1614557,11.8046883 59.6875,11.6484375 C59.6458331,12.3880245 59.6406248,13.1015591 59.671875,13.7890625 L63.546875,13.7890625 L63.546875,12.4296875 L59.984375,12.4296875 L59.984375,10.6484375 L63.546875,10.6484375 L63.546875,9.5234375 L60.0625,9.5234375 L60.0625,1.4140625 L69.03125,1.4140625 L69.03125,9.5234375 L65.546875,9.5234375 L65.546875,10.6484375 L69.109375,10.6484375 L69.109375,12.4296875 L65.546875,12.4296875 L65.546875,13.7890625 L69.796875,13.7890625 L69.796875,15.5703125 L59.078125,15.5703125 L59.078125,13.921875 C57.7031181,14.3020852 56.2239662,14.7473933 54.640625,15.2578125 Z M67.078125,3.1640625 L65.546875,3.1640625 L65.546875,4.6484375 L67.078125,4.6484375 L67.078125,3.1640625 Z M62.015625,4.6484375 L63.546875,4.6484375 L63.546875,3.1640625 L62.015625,3.1640625 L62.015625,4.6484375 Z M67.078125,7.7734375 L67.078125,6.2734375 L65.546875,6.2734375 L65.546875,7.7734375 L67.078125,7.7734375 Z M62.015625,7.7734375 L63.546875,7.7734375 L63.546875,6.2734375 L62.015625,6.2734375 L62.015625,7.7734375 Z M72.859375,1.7109375 C77.9635672,1.73177094 82.5937292,1.52864797 86.75,1.1015625 L87.0625,2.8203125 C84.9687395,3.01823016 82.7786573,3.17968688 80.4921875,3.3046875 C79.4088488,3.96094078 78.2604227,4.58593453 77.046875,5.1796875 L82.2109375,4.9453125 C82.986983,4.50781031 83.7812459,4.04427328 84.59375,3.5546875 L86.0625,5.0234375 C83.1458187,6.63802891 80.0416831,8.06509797 76.75,9.3046875 C78.9948029,9.20572867 81.255197,9.07552164 83.53125,8.9140625 C83.1302063,8.51822719 82.7500018,8.15885578 82.390625,7.8359375 L83.84375,6.6640625 C84.6458373,7.36198266 85.916658,8.58592875 87.65625,10.3359375 L86.171875,11.6953125 C85.8020815,11.2838521 85.4453142,10.8958352 85.1015625,10.53125 L81.328125,10.6796875 L81.328125,14.3515625 C81.328125,14.8776068 81.1744807,15.2786445 80.8671875,15.5546875 C80.5598943,15.8307305 80.091149,15.9804686 79.4609375,16.0039062 C78.830726,16.0273439 77.9895886,16.0390625 76.9375,16.0390625 C76.8437495,15.278642 76.7083342,14.5703158 76.53125,13.9140625 C77.0416692,13.9557294 77.5859346,13.9765625 78.1640625,13.9765625 C78.5859396,13.9765625 78.8645827,13.929688 79,13.8359375 C79.1354173,13.742187 79.203125,13.5651055 79.203125,13.3046875 L79.203125,10.78125 C76.86978,10.9010423 75.0833395,11.0338534 73.84375,11.1796875 L73.296875,9.2421875 C75.0573005,8.5755175 76.9609273,7.71875523 79.0078125,6.671875 C76.9400938,6.79687562 75.3437556,6.94010336 74.21875,7.1015625 L73.640625,5.1953125 C74.7760473,4.77343539 75.9583272,4.19792031 77.1875,3.46875 L73.203125,3.5859375 C73.130208,2.99218453 73.0156258,2.36719078 72.859375,1.7109375 Z M83.84375,11.1171875 C85.0000058,11.9088581 86.2968678,12.8723902 87.734375,14.0078125 L86.296875,15.5078125 C85.1822861,14.5494744 83.9270903,13.5442761 82.53125,12.4921875 L83.84375,11.1171875 Z M75.921875,11.2734375 L77.5,12.6640625 C76.3229108,13.7682347 75.0364653,14.7786412 73.640625,15.6953125 C73.1614559,15.0807261 72.6875023,14.52344 72.21875,14.0234375 C73.5625067,13.263017 74.7968694,12.3463595 75.921875,11.2734375 Z M103.921875,11.2890625 C104.546878,11.6015641 105.171872,11.8619781 105.796875,12.0703125 C105.656249,13.6640705 105.410158,14.6848936 105.058594,15.1328125 C104.707029,15.5807314 104.151045,15.8046875 103.390625,15.8046875 L102.46875,15.8046875 C101.270827,15.8046875 100.666667,15.1432358 100.65625,13.8203125 L100.65625,8.8359375 L99.390625,8.9296875 C99.333333,11.2161573 98.9843782,12.8815052 98.34375,13.9257812 C97.7031218,14.9700573 96.9270879,15.7213519 96.015625,16.1796875 C95.5781228,15.6848934 95.062503,15.140628 94.46875,14.546875 C93.0729097,14.6875007 91.7604228,14.8515616 90.53125,15.0390625 L90.359375,12.9609375 C91.3906302,12.8880205 93.1666541,12.7005223 95.6875,12.3984375 C95.6614582,12.7890645 95.6458334,13.2083311 95.640625,13.65625 C96.7760473,12.9010379 97.3671873,11.3906363 97.4140625,9.125 C96.8307262,9.19270867 96.3645851,9.26302047 96.015625,9.3359375 L95.453125,7.4296875 C96.2760458,6.90885156 97.1666619,5.80469594 98.125,4.1171875 L95.484375,4.1171875 L95.484375,2.3359375 L98.9453125,2.3359375 C98.7734366,1.91926875 98.5781261,1.48177313 98.359375,1.0234375 L100.6875,0.6015625 C100.968751,1.16927367 101.236978,1.74739289 101.492188,2.3359375 L105.421875,2.3359375 L105.421875,4.1171875 L100.421875,4.1171875 C99.7395799,5.17969281 98.9531295,6.22655734 98.0625,7.2578125 C99.3697982,7.21093727 100.812492,7.14062547 102.390625,7.046875 C102.036457,6.51041398 101.66146,5.96614859 101.265625,5.4140625 L102.828125,4.5234375 C103.932297,5.98177812 104.880204,7.34113953 105.671875,8.6015625 L103.96875,9.6328125 C103.791666,9.31510258 103.606772,8.99479328 103.414062,8.671875 L102.65625,8.7109375 L102.65625,13.2109375 C102.65625,13.6171895 102.791665,13.8203125 103.0625,13.8203125 L103.203125,13.8203125 C103.447918,13.8203125 103.609375,13.6927096 103.6875,13.4375 C103.765625,13.1822904 103.84375,12.4661517 103.921875,11.2890625 Z M93.140625,9.8046875 L95.453125,9.5390625 C95.3697913,10.1848991 95.3333333,10.7786431 95.34375,11.3203125 C93.6562416,11.4036463 92.2343808,11.5494781 91.078125,11.7578125 L90.59375,10.0234375 C91.1927113,9.42447617 91.9218707,8.48177727 92.78125,7.1953125 C91.9687459,7.25260445 91.2968777,7.32031211 90.765625,7.3984375 L90.203125,5.6328125 C91.1927133,4.27863906 92.0885377,2.6015725 92.890625,0.6015625 L94.9375,1.4140625 C94.1770795,2.84115297 93.3541711,4.18488953 92.46875,5.4453125 C92.9010438,5.44010414 93.3932264,5.42187516 93.9453125,5.390625 L94.65625,4.2109375 L96.28125,5.0859375 C95.1979113,6.79427938 94.1510467,8.36718031 93.140625,9.8046875 Z" id="path-5"></path>
        <filter x="-7.1%" y="-41.3%" width="116.1%" height="207.9%" filterUnits="objectBoundingBox" id="filter-6">
            <feOffset dx="1" dy="2" in="SourceAlpha" result="shadowOffsetOuter1"></feOffset>
            <feGaussianBlur stdDeviation="2.5" in="shadowOffsetOuter1" result="shadowBlurOuter1"></feGaussianBlur>
            <feColorMatrix values="0 0 0 0 0.780392157   0 0 0 0 0.792156863   0 0 0 0 0.815686275  0 0 0 0.26 0" type="matrix" in="shadowBlurOuter1"></feColorMatrix>
        </filter>
    </defs>
    <g id="1-登陆注册（手机号）" stroke="none" stroke-width="1" fill="none" fill-rule="evenodd">
        <g id="登录-copy" transform="translate(-957.000000, -235.000000)">
            <g id="logo-_后台" transform="translate(961.000000, 238.000000)">
                <g id="Group-8">
                    <g id="logo-samantha">
                        <use fill="black" fill-opacity="1" filter="url(#filter-3)" xlink:href="#path-2"></use>
                        <use fill="url(#linearGradient-1)" fill-rule="evenodd" xlink:href="#path-2"></use>
                    </g>
                </g>
                <g id="Group-5" transform="translate(0.000000, 50.000000)">
                    <g id="后台管理系统">
                        <use fill="black" fill-opacity="1" filter="url(#filter-6)" xlink:href="#path-5"></use>
                        <use fill="#ACB5C1" fill-rule="evenodd" xlink:href="#path-5"></use>
                        <use fill="url(#linearGradient-4)" fill-rule="evenodd" xlink:href="#path-5"></use>
                    </g>
                </g>
            </g>
        </g>
    </g>
</svg>