<?xml version="1.0" encoding="UTF-8"?>
<svg width="30px" height="30px" viewBox="0 0 30 30" version="1.1" xmlns="http://www.w3.org/2000/svg" xmlns:xlink="http://www.w3.org/1999/xlink">
    <!-- Generator: Sketch 51.3 (57544) - http://www.bohemiancoding.com/sketch -->
    <title>edit</title>
    <desc>Created with Sketch.</desc>
    <defs></defs>
    <g id="181217_前台" stroke="none" stroke-width="1" fill="none" fill-rule="evenodd">
        <g id="民生话术模板-编辑-话术编辑器-平级跳转标识" transform="translate(-1700.000000, -71.000000)" fill-rule="nonzero">
            <g id="Group-30-Copy-3" transform="translate(1679.000000, 61.000000)">
                <g id="Group-29">
                    <g id="icon_edit" transform="translate(21.000000, 10.000000)">
                        <rect id="Rectangle-path" fill="#000000" opacity="0" x="2" y="2" width="26" height="26"></rect>
                        <path d="M27.7750931,26.2180284 C27.7750931,26.8427848 27.268628,27.34925 26.6438716,27.34925 L3.35612842,27.34925 C2.731372,27.34925 2.22490686,26.8427849 2.22490686,26.2180284 C2.22490686,25.593272 2.731372,25.0868069 3.35612842,25.0868069 L26.6438716,25.0868069 C27.268628,25.0868069 27.7750931,25.5932721 27.7750931,26.2180284 Z M26.793245,8.76428463 L12.1972125,23.3603171 L12.0691096,23.4211159 L6.11318575,24.0238841 L6.71601627,18.0816976 L6.77681001,17.9536455 L21.3728424,3.35761308 C22.3066599,2.42379564 23.9370902,2.42379564 24.8709077,3.35761308 L26.779514,5.26621939 C27.2430699,5.72977535 27.5004735,6.35942412 27.5004164,7.01720613 C27.5155011,7.66584732 27.2593778,8.29815183 26.793245,8.76428463 Z M11.1001786,21.2372402 L22.4729883,9.86443049 L20.2589656,7.65040779 L8.88660667,19.0227667 L8.64459695,21.4912659 L11.1001786,21.2372402 Z M25.190055,7.1748257 C25.2723302,7.09255057 25.2723302,6.95168443 25.190055,6.8694093 L23.2814487,4.96080299 C23.2416416,4.9209959 23.1868935,4.89909665 23.1287405,4.89909665 C23.0705876,4.89909665 23.0158394,4.9209959 22.9760323,4.96080299 L21.8758865,6.06094886 L24.0899092,8.27497156 L25.190055,7.1748257 Z" id="Shape" fill="#647184"></path>
                    </g>
                </g>
            </g>
        </g>
    </g>
</svg>