<?xml version="1.0" encoding="UTF-8"?>
<svg width="30px" height="30px" viewBox="0 0 30 30" version="1.1" xmlns="http://www.w3.org/2000/svg" xmlns:xlink="http://www.w3.org/1999/xlink">
    <!-- Generator: Sketch 51.3 (57544) - http://www.bohemiancoding.com/sketch -->
    <title>icon_drag to move</title>
    <desc>Created with Sketch.</desc>
    <defs></defs>
    <g id="181217_前台" stroke="none" stroke-width="1" fill="none" fill-rule="evenodd">
        <g id="民生话术模板-编辑-话术编辑器-平级跳转标识" transform="translate(-2059.000000, -71.000000)" fill="#647184" fill-rule="nonzero">
            <g id="Group-22" transform="translate(2039.000000, 61.000000)">
                <g id="icon_drag-to-move" transform="translate(20.000000, 10.000000)">
                    <path d="M28.9006307,14.9063256 C28.9748465,15.0100425 29.0347374,15.1090948 29.0777908,15.2052133 C29.1242811,15.3090049 29.15,15.4069355 29.15,15.5001074 C29.1499918,15.5869486 29.1275863,15.6770147 29.0868206,15.7713591 C29.0433167,15.8720406 28.9803798,15.9748166 28.8992272,16.0854869 C28.6761091,16.3897596 28.7385925,16.3125239 28.6890118,16.2208694 L28.6631447,16.398305 L24.8357906,20.2256635 C24.6126814,20.4487729 24.2502823,20.4487729 24.0271731,20.2256635 L23.4297869,19.6282765 C23.2066778,19.4051672 23.2066778,19.0426437 23.4298214,18.8194999 L25.7571128,16.493717 L16.4937005,16.493717 L16.4937005,25.7572845 L18.8203947,23.4306716 C19.0435343,23.2075739 19.4058946,23.2075739 19.6290021,23.4306817 L20.2263984,24.0280786 C20.4494958,24.2512184 20.4494958,24.6135788 20.2263892,24.8366856 L16.2438169,28.8193272 C16.1845271,28.8336118 16.1418778,28.8661389 16.0936921,28.900624 C15.9901038,28.9747593 15.891176,29.0346005 15.7951809,29.0776459 C15.6912993,29.1242277 15.593297,29.15 15.5000777,29.15 C15.4133185,29.15 15.3233423,29.1276605 15.2291051,29.0870032 C15.1282785,29.043503 15.0253604,28.9805147 14.9145351,28.8992665 C14.6101191,28.6760931 14.6875244,28.7387028 14.779208,28.6890236 L14.6016781,28.663204 L10.7744505,24.8358166 C10.5513414,24.6127073 10.5513414,24.2503081 10.7744505,24.0271987 L11.3718467,23.4298018 C11.5949863,23.206704 11.9573466,23.206704 12.1804886,23.4298462 L14.5062685,25.75714 L14.5062685,16.493717 L5.24269278,16.493717 L7.56941539,18.8204143 C7.79251281,19.043554 7.79251281,19.4059144 7.56940538,19.6290221 L6.97201914,20.2264091 C6.74890995,20.4495185 6.3863866,20.4495185 6.16327783,20.2264095 L2.18067356,16.2438329 C2.16638789,16.1845433 2.13386082,16.1418939 2.09937563,16.093708 C2.02524049,15.9901196 1.96539929,15.8911918 1.922354,15.7951966 C1.87577229,15.6913149 1.85,15.5933126 1.85,15.5000932 C1.85,15.4133327 1.87234023,15.3233549 1.91299902,15.2291182 C1.95651487,15.1282597 2.0195343,15.0253068 2.10081643,14.9144615 C2.32290217,14.6116008 2.26169781,14.6872302 2.31088283,14.7787623 L2.33694854,14.601695 L6.16418836,10.7744508 C6.38732799,10.551353 6.74968827,10.551353 6.9727958,10.7744608 L7.57019205,11.3718577 C7.79328947,11.5949975 7.79328947,11.9573579 7.57014758,12.1805001 L5.24285609,14.506283 L14.5062374,14.506283 L14.5062374,5.24269669 L12.1795532,7.56941152 C11.956444,7.79252097 11.594045,7.79252097 11.3709358,7.56941152 L10.7735495,6.97202459 C10.5504404,6.74891524 10.5504404,6.38639176 10.7735495,6.16328244 L14.7561528,2.18067452 C14.8154501,2.16639159 14.8581136,2.13385752 14.9063105,2.09936962 C15.0100274,2.02515377 15.1090796,1.96526276 15.2051979,1.92220934 C15.3089894,1.87571894 15.40692,1.84999999 15.5000777,1.85 C15.5869084,1.85 15.6769631,1.87239031 15.7712911,1.91313572 C15.8720292,1.95665002 15.9748631,2.01962233 16.0855817,2.1008223 C16.3885708,2.32303177 16.3127851,2.26169775 16.2212521,2.31088343 L16.398318,2.33694742 L20.2256838,6.16419337 C20.4487812,6.38733316 20.4487812,6.74969356 20.2256738,6.97280125 L19.6282876,7.57018817 C19.4051784,7.79329763 19.042655,7.79329763 18.8195114,7.57015372 L16.4937315,5.24285999 L16.4937315,14.5062519 L25.7573195,14.5062519 L23.4307189,12.1795647 C23.2076098,11.9564553 23.2076098,11.5940561 23.4307189,11.3709468 L24.0281152,10.7735498 C24.2512548,10.5504521 24.6136151,10.5504521 24.8367226,10.7735599 L28.8193256,14.7561674 C28.8336087,14.8154649 28.8661428,14.8581285 28.9006307,14.9063256 Z" id="Shape"></path>
                </g>
            </g>
        </g>
    </g>
</svg>