<?xml version="1.0" encoding="UTF-8"?>
<svg width="30px" height="30px" viewBox="0 0 30 30" version="1.1" xmlns="http://www.w3.org/2000/svg" xmlns:xlink="http://www.w3.org/1999/xlink">
    <!-- Generator: Sketch 51.2 (57519) - http://www.bohemiancoding.com/sketch -->
    <title>icon_ library</title>
    <desc>Created with Sketch.</desc>
    <defs></defs>
    <g id="181225" stroke="none" stroke-width="1" fill="none" fill-rule="evenodd">
        <g id="话术编辑器-正常-平级跳转标识" transform="translate(-1516.000000, -72.000000)" fill="#647184" fill-rule="nonzero">
            <g id="Group-30-Copy-4" transform="translate(1499.000000, 62.000000)">
                <g id="Group-29">
                    <g id="icon_-library" transform="translate(17.000000, 10.000000)">
                        <path d="M23.7454609,1.75002109 C24.5042819,1.74713998 25.2328894,2.04459986 25.7713192,2.57707973 C26.309699,3.10951023 26.6137871,3.83326431 26.6166677,4.58950359 L26.6166663,25.4112444 C26.6137869,26.1667872 26.3096624,26.8905261 25.7713192,27.4229203 C25.2329254,27.9553645 24.5043327,28.2528603 23.7462063,28.2499804 L6.52120577,28.2499789 C5.76238479,28.2528601 5.03377731,27.9554002 4.49534751,27.4229203 C3.95696764,26.8904898 3.65287953,26.1667357 3.64999898,25.4104964 L3.6500004,4.58875561 C3.65287975,3.83321279 3.95700432,3.10947395 4.49534751,2.57707972 C5.03373286,2.0446438 5.76226449,1.74718909 6.52101783,1.75002038 L23.7454609,1.75002109 Z M7.2818842,3.83864779 L6.52008795,3.83865328 C6.31906887,3.83789017 6.12600983,3.91671484 5.9834157,4.05773368 C5.84099776,4.19857828 5.76054182,4.38997208 5.75978201,4.58912964 L5.75978201,25.4108704 C5.75978201,25.8247148 6.10050199,26.1613454 6.52083312,26.1613453 L7.2818842,26.1613453 L7.2818842,3.83864779 Z M9.58796281,3.83864788 L9.58796281,26.1625568 L23.7465787,26.1625513 C23.9475978,26.1633144 24.1406569,26.0844897 24.283251,25.9434709 C24.4256689,25.8026263 24.5061249,25.6112325 24.5068847,25.4120749 L24.5068861,4.58987721 C24.5061249,4.39001585 24.4257002,4.19860924 24.283251,4.05773369 C24.140626,3.91668436 23.9475542,3.83789026 23.7458335,3.83865469 L9.58796281,3.83864788 Z M20.8750002,18.5931979 C22.0399116,18.5931979 22.9847825,19.5278984 22.9847825,20.6818322 L22.9847825,22.5717611 C22.9847825,23.7256949 22.0399116,24.6603954 20.8750001,24.6603954 L17.047565,24.660394 C16.4900738,24.6625117 15.9545433,24.4438328 15.5587515,24.0524154 C15.1627755,23.6608157 14.939157,23.1284494 14.937037,22.5717611 L14.937037,20.6818322 C14.937037,19.5278984 15.8819079,18.5931979 17.0468193,18.5931979 L20.8750002,18.5931979 Z M20.997685,22.5144867 L20.997685,20.7391066 L16.9241345,20.7391066 L16.9241345,22.5144867 L20.997685,22.5144867 Z" id="Shape"></path>
                    </g>
                </g>
            </g>
        </g>
    </g>
</svg>