<?xml version="1.0" encoding="UTF-8"?>
<svg width="16px" height="16px" viewBox="0 0 16 16" version="1.1" xmlns="http://www.w3.org/2000/svg" xmlns:xlink="http://www.w3.org/1999/xlink">
    <!-- Generator: Sketch 51.3 (57544) - http://www.bohemiancoding.com/sketch -->
    <title>icon_hint</title>
    <desc>Created with Sketch.</desc>
    <defs></defs>
    <g id="181217_前台" stroke="none" stroke-width="1" fill="none" fill-rule="evenodd">
        <g id="民生话术模板-编辑-话术编辑器-正常-平级跳转标识2" transform="translate(-2258.000000, -586.000000)" fill-rule="nonzero">
            <g id="主流程" transform="translate(2150.000000, 171.000000)">
                <g id="开场白">
                    <g id="首轮话术">
                        <g id="Group-15" transform="translate(98.000000, 191.000000)">
                            <g id="Group-18" transform="translate(10.000000, 221.000000)">
                                <g id="提示" transform="translate(0.000000, 3.000000)">
                                    <rect id="Rectangle-path" fill="#000000" opacity="0" x="0" y="0" width="16" height="16"></rect>
                                    <path d="M8.00764281,1.04471569 C8.96911894,1.04471569 9.8712273,1.22807936 10.713936,1.59488667 C11.5561329,1.96255739 12.290611,2.45838122 12.915899,3.08410098 C13.5411871,3.70903728 14.0378743,4.44594566 14.4046816,5.29413858 C14.7714889,6.14146809 14.9552843,7.04565505 14.9552843,8.00765881 C14.9552843,8.96879916 14.7714889,9.8712433 14.4046816,10.7135202 C14.0378743,11.5565806 13.5411871,12.2901953 12.915899,12.915915 C12.290611,13.5416348 11.5561489,14.0374586 10.713936,14.4042659 C9.87121133,14.7719366 8.96911894,14.9553003 8.00764281,14.9553003 C7.04607077,14.9553003 6.1418838,14.7719366 5.29369087,14.4042659 C4.44636136,14.0374586 3.70935705,13.5416348 3.08408498,12.915915 C2.45838122,12.2901953 1.96210969,11.5565966 1.59530237,10.7135202 C1.22806336,9.8712433 1.04471567,8.96878317 1.04471567,8.00765881 C1.04471567,7.04565505 1.22806336,6.14146809 1.59530237,5.29413858 C1.96210967,4.44594566 2.45836522,3.70902128 3.08408498,3.08410098 C3.70935705,2.45838122 4.44636136,1.96255739 5.29369087,1.59488667 C6.1418838,1.22807936 7.04607077,1.04471569 8.00764281,1.04471569 Z M8.84523494,7.04563906 C8.84523494,6.79777511 8.76498534,6.5889407 8.60493386,6.41827242 C8.44443467,6.24760414 8.24578536,6.16179031 8.00764283,6.16179031 C7.76994798,6.16179031 7.56824473,6.24760413 7.40270897,6.41827242 C7.23752497,6.5889407 7.15474908,6.79777513 7.15474908,7.04563906 L7.15474908,12.2408847 C7.15474908,12.4888446 7.23752495,12.6883733 7.40270897,12.8386074 C7.56824473,12.9880581 7.76994798,13.0627435 8.00764283,13.0627435 C8.24576937,13.0627435 8.44704092,12.9855478 8.61257669,12.8309646 C8.77811245,12.675598 8.86044064,12.4735429 8.86044064,12.225679 L8.84523494,7.04563906 Z M8.00764281,5.12259089 C8.30777533,5.12259089 8.56328209,5.01730228 8.77558614,4.80507817 C8.98702678,4.59285406 9.09309886,4.33725136 9.09309886,4.03756655 C9.09309886,3.73788173 8.98702678,3.48139963 8.77558614,3.27005492 C8.56328208,3.05775086 8.30775933,2.95167878 8.00764281,2.95167878 C7.707958,2.95167878 7.4493973,3.05775086 7.23204067,3.27005492 C7.01511575,3.48141563 6.90688512,3.73788173 6.90688512,4.03756655 C6.90688512,4.33725136 7.01513173,4.59285406 7.23204067,4.80507817 C7.44939731,5.01731827 7.707958,5.12259089 8.00764281,5.12259089 Z" id="Shape" fill="#919FA9"></path>
                                </g>
                            </g>
                        </g>
                    </g>
                </g>
            </g>
        </g>
    </g>
</svg>